<svg width="289" height="141" viewBox="0 0 289 141" fill="none" xmlns="http://www.w3.org/2000/svg">
<g clip-path="url(#clip0_3_974)">
<rect width="289" height="141" rx="5" fill="#121212"/>
<g clip-path="url(#clip1_3_974)">
<path d="M120.83 -9.9554C120.83 -2.81985 126.606 2.96477 133.73 2.96477C140.854 2.96477 146.63 -2.81985 146.63 -9.9554V-24.5552" stroke="white" stroke-opacity="0.02" stroke-width="12.1986" stroke-linecap="round" stroke-linejoin="round"/>
<path d="M240.37 -24.1251L294.494 -24.1253C305.093 -24.1253 313.685 -15.5582 313.685 -4.99029" stroke="white" stroke-opacity="0.02" stroke-width="12.1986" stroke-linecap="round" stroke-linejoin="round"/>
<path d="M144.695 188.919C148.063 188.919 150.794 186.188 150.794 182.82C150.794 179.451 148.063 176.72 144.695 176.72V188.919ZM122.039 223.947C125.407 223.947 128.138 221.216 128.138 217.847C128.138 214.479 125.407 211.748 122.039 211.748V223.947ZM78.8708 284.908C82.2393 284.908 84.9701 282.178 84.9701 278.809C84.9701 275.441 82.2393 272.71 78.8708 272.71V284.908ZM128.253 236.035C128.253 232.666 125.522 229.936 122.153 229.936C118.785 229.936 116.054 232.666 116.054 236.035H128.253ZM89.8991 101.649C89.8991 98.2808 87.1684 95.5501 83.7998 95.5501C80.4313 95.5501 77.7005 98.2808 77.7005 101.649L89.8991 101.649ZM138.597 164.295C138.597 167.664 141.327 170.394 144.696 170.394C148.065 170.394 150.795 167.664 150.795 164.295L138.597 164.295ZM144.695 176.72L106.116 176.72V188.919L144.695 188.919V176.72ZM106.116 176.72C93.0538 176.72 82.4095 187.262 82.4095 200.333H94.608C94.608 194.06 99.7298 188.919 106.116 188.919V176.72ZM82.4095 200.333C82.4095 213.405 93.0538 223.947 106.116 223.947V211.748C99.7298 211.748 94.608 206.607 94.608 200.333H82.4095ZM106.116 223.947L122.039 223.947V211.748L106.116 211.748V223.947ZM78.8708 272.71H76.571V284.908H78.8708V272.71ZM76.571 272.71C73.1609 272.71 70.3845 269.939 70.3845 266.51H58.1859C58.1859 276.663 66.4107 284.908 76.571 284.908V272.71ZM70.3845 266.51C70.3845 263.078 73.1617 260.308 76.571 260.308V248.11C66.4099 248.11 58.1859 256.355 58.1859 266.51H70.3845ZM76.571 260.308H104.001V248.11L76.571 248.11V260.308ZM104.001 260.308C117.401 260.308 128.253 249.435 128.253 236.035H116.054C116.054 242.711 110.651 248.11 104.001 248.11V260.308ZM77.7005 101.649V115.471L89.8991 115.471V101.649L77.7005 101.649ZM77.7005 115.471C77.7005 135.668 94.0567 152.053 114.248 152.053V139.854C100.807 139.854 89.8991 128.944 89.8991 115.471L77.7005 115.471ZM114.248 152.053H126.375V139.854H114.248V152.053ZM126.375 152.053C133.118 152.053 138.597 157.527 138.597 164.295L150.795 164.295C150.795 150.803 139.868 139.854 126.375 139.854V152.053Z" fill="white" fill-opacity="0.02"/>
<path fill-rule="evenodd" clip-rule="evenodd" d="M126.42 68.3246C131.17 68.3246 135.02 64.4743 135.02 59.7247C135.02 54.975 131.17 51.1247 126.42 51.1247C121.671 51.1247 117.82 54.975 117.82 59.7247C117.82 64.4743 121.671 68.3246 126.42 68.3246Z" stroke="white" stroke-opacity="0.02" stroke-width="12.1986" stroke-linecap="round" stroke-linejoin="round"/>
<path fill-rule="evenodd" clip-rule="evenodd" d="M39.5595 44.0295C47.0402 44.0295 53.1045 37.9652 53.1045 30.4845C53.1045 23.0039 47.0402 16.9396 39.5595 16.9396C32.0788 16.9396 26.0145 23.0039 26.0145 30.4845C26.0145 37.9652 32.0788 44.0295 39.5595 44.0295Z" stroke="white" stroke-opacity="0.02" stroke-width="12.1986" stroke-linecap="round" stroke-linejoin="round"/>
<path d="M39.6673 59.9395C56.3503 59.9395 69.8747 46.6078 69.8747 30.1621C69.8747 13.7164 56.3503 0.384659 39.6673 0.384659C22.9843 0.384659 9.45984 13.7164 9.45984 30.1621" stroke="white" stroke-opacity="0.02" stroke-width="12.1986" stroke-linecap="round" stroke-linejoin="round"/>
<path d="M70.627 64.2396C63.7993 64.2396 58.2645 69.7744 58.2645 76.6021C58.2645 83.4298 63.7993 88.9646 70.627 88.9646C77.4547 88.9646 82.9895 83.4298 82.9895 76.6021V64.2396" stroke="white" stroke-opacity="0.02" stroke-width="12.1986" stroke-linecap="round" stroke-linejoin="round"/>
<path d="M74.3896 -8.10769C74.3896 0.975945 81.7052 8.33979 90.7295 8.33979C99.7538 8.33979 107.069 0.975945 107.069 -8.10769C107.069 -17.1914 99.7538 -24.5552 90.7295 -24.5552L74.3896 -24.5552" stroke="white" stroke-opacity="0.02" stroke-width="12.1986" stroke-linecap="round" stroke-linejoin="round"/>
<path d="M15.3727 161.545C7.47639 161.545 1.0752 155.212 1.0752 147.4C1.0752 139.587 7.47639 133.255 15.3727 133.255C23.269 133.255 29.6701 139.587 29.6701 147.4V190.659" stroke="white" stroke-opacity="0.02" stroke-width="12.1986" stroke-linecap="round" stroke-linejoin="round"/>
<path d="M207.689 5.2847C200.089 5.2847 193.929 11.359 193.929 18.8522C193.929 26.3453 200.089 32.4196 207.689 32.4196C215.288 32.4196 221.449 26.3453 221.449 18.8522V-24.7703" stroke="white" stroke-opacity="0.02" stroke-width="12.1986" stroke-linecap="round" stroke-linejoin="round"/>
<path d="M234.242 96.1838C241.07 96.1838 246.605 101.691 246.605 108.484C246.605 115.278 241.07 120.784 234.242 120.784C227.415 120.784 221.88 115.278 221.88 108.484V62.5196" stroke="white" stroke-opacity="0.02" stroke-width="12.1986" stroke-linecap="round" stroke-linejoin="round"/>
<path d="M13.4377 97.5017C6.61006 97.5017 1.0752 102.954 1.0752 109.681C1.0752 116.407 6.61006 121.859 13.4377 121.859C20.2653 121.859 25.8001 116.407 25.8001 109.681V59.9395" stroke="white" stroke-opacity="0.02" stroke-width="12.1986" stroke-linecap="round" stroke-linejoin="round"/>
<path d="M148.072 59.9396C148.072 47.7093 138.315 37.7946 126.281 37.7946C114.246 37.7946 104.49 47.7093 104.49 59.9396C104.49 72.1698 114.246 82.0845 126.281 82.0845L183.395 82.0845" stroke="white" stroke-opacity="0.02" stroke-width="12.1986" stroke-linecap="round" stroke-linejoin="round"/>
<path d="M322.207 131.534C334.244 131.534 343.999 121.62 343.999 109.389C343.999 97.1593 334.244 87.2445 322.207 87.2445L265.094 87.2445" stroke="white" stroke-opacity="0.02" stroke-width="12.1986" stroke-linecap="round" stroke-linejoin="round"/>
<path fill-rule="evenodd" clip-rule="evenodd" d="M238.005 12.9621C238.005 1.50355 247.194 -7.78535 258.529 -7.78535L279.616 -7.78535C290.952 -7.78535 300.14 1.50355 300.14 12.9621V12.9621C300.14 24.4207 290.952 33.7096 279.616 33.7096L258.529 33.7096C247.194 33.7096 238.005 24.4207 238.005 12.9621V12.9621Z" stroke="white" stroke-opacity="0.02" stroke-width="12.1986" stroke-linecap="round" stroke-linejoin="round"/>
<path fill-rule="evenodd" clip-rule="evenodd" d="M57.2983 162.494C50.2333 162.494 44.5059 156.777 44.5059 149.723V113.345C44.5059 106.292 50.2333 100.574 57.2983 100.574V100.574C64.3634 100.574 70.0908 106.292 70.0908 113.345V149.723C70.0908 156.777 64.3634 162.494 57.2983 162.494V162.494Z" stroke="white" stroke-opacity="0.02" stroke-width="12.1986" stroke-linecap="round" stroke-linejoin="round"/>
<path d="M178.02 146.262V127.055C178.02 121.573 182.496 117.13 188.017 117.13V117.13C193.538 117.13 198.014 121.573 198.014 127.055V165.469C198.014 170.951 193.538 175.394 188.017 175.394V175.394V175.394C182.496 175.394 178.02 170.951 178.02 165.469V160.828" stroke="white" stroke-opacity="0.02" stroke-width="12.1986" stroke-linecap="round" stroke-linejoin="round"/>
<path d="M196.509 43.5847V45.2593C196.509 54.7919 188.761 62.5197 179.202 62.5197C169.643 62.5197 161.895 54.7919 161.895 45.2593V-7.29478C161.895 -16.8274 169.643 -24.5552 179.202 -24.5552C188.761 -24.5552 196.509 -16.8274 196.509 -7.29478V-6.77955" stroke="white" stroke-opacity="0.02" stroke-width="12.1986" stroke-linecap="round" stroke-linejoin="round"/>
<path d="M161.464 117.13V166.931C161.464 181.817 173.641 193.884 188.661 193.884C203.682 193.884 215.859 181.817 215.859 166.931V155.165" stroke="white" stroke-opacity="0.02" stroke-width="12.1986" stroke-linecap="round" stroke-linejoin="round"/>
<path d="M125.99 125.944H115.415C108.312 125.944 102.555 120.169 102.555 113.044C102.555 105.92 108.312 100.145 115.415 100.145H136.565C143.667 100.145 149.425 105.92 149.425 113.044V114.191C149.425 120.682 144.179 125.944 137.707 125.944" stroke="white" stroke-opacity="0.02" stroke-width="12.1986" stroke-linecap="round" stroke-linejoin="round"/>
<path d="M234.242 76.7095H246.321C254.432 76.7095 261.009 70.5008 261.009 62.8421C261.009 55.1834 254.432 48.9746 246.321 48.9746L222.163 48.9746C214.051 48.9746 207.474 55.1834 207.474 62.8421" stroke="white" stroke-opacity="0.02" stroke-width="12.1986" stroke-linecap="round" stroke-linejoin="round"/>
<path d="M145.126 18.8747L116.169 18.8747C97.8455 18.8747 82.991 33.7948 82.991 52.1997" stroke="white" stroke-opacity="0.02" stroke-width="12.1986" stroke-linecap="round" stroke-linejoin="round"/>
<path d="M160.605 100.144H181.756C195.96 100.144 207.475 88.5933 207.475 74.3445" stroke="white" stroke-opacity="0.02" stroke-width="12.1986" stroke-linecap="round" stroke-linejoin="round"/>
<path d="M324.004 109.819H305.942C292.881 109.819 282.294 120.504 282.294 133.684" stroke="white" stroke-opacity="0.02" stroke-width="12.1986" stroke-linecap="round" stroke-linejoin="round"/>
<path d="M9.56734 45.3196C9.56734 47.3219 9.56734 72.5272 9.56734 84.8795" stroke="white" stroke-opacity="0.02" stroke-width="12.1986" stroke-linecap="round" stroke-linejoin="round"/>
<path d="M234.027 136.265C234.027 137.918 234.027 158.74 234.027 168.944" stroke="white" stroke-opacity="0.02" stroke-width="12.1986" stroke-linecap="round" stroke-linejoin="round"/>
<path d="M271.193 101.435C271.193 98.0661 268.462 95.3353 265.094 95.3353C261.725 95.3353 258.994 98.0661 258.994 101.435H271.193ZM240.493 175.338C237.125 175.338 234.394 178.069 234.394 181.437C234.394 184.806 237.125 187.536 240.493 187.536V175.338ZM205.108 203.91C201.74 203.91 199.009 206.641 199.009 210.009C199.009 213.378 201.74 216.109 205.108 216.109V203.91ZM238.504 188.496C238.504 185.128 235.773 182.397 232.405 182.397C229.036 182.397 226.306 185.128 226.306 188.496H238.504ZM258.994 101.435V132.036H271.193V101.435H258.994ZM258.994 132.036C258.994 133.435 257.839 134.651 256.308 134.651V146.85C264.481 146.85 271.193 140.266 271.193 132.036H258.994ZM256.308 134.651C248.131 134.651 241.423 141.241 241.423 149.469L253.621 149.469C253.621 148.067 254.78 146.85 256.308 146.85V134.651ZM241.423 149.469V151.278L253.621 151.278V149.469L241.423 149.469ZM241.423 151.278C241.423 159.505 248.131 166.095 256.308 166.095V153.897C254.78 153.897 253.621 152.68 253.621 151.278L241.423 151.278ZM256.308 166.095C257.836 166.095 258.994 167.312 258.994 168.715H271.193C271.193 160.487 264.484 153.897 256.308 153.897V166.095ZM258.994 168.715V170.717H271.193V168.715H258.994ZM258.994 170.717C258.994 173.225 256.933 175.338 254.29 175.338V187.536C263.581 187.536 271.193 180.05 271.193 170.717H258.994ZM254.29 175.338L248.693 175.338V187.536L254.29 187.536V175.338ZM248.693 175.338H240.493V187.536H248.693V175.338ZM205.108 216.109H210.865V203.91H205.108V216.109ZM210.865 216.109C226.123 216.109 238.504 203.753 238.504 188.496H226.306C226.306 197.002 219.4 203.91 210.865 203.91V216.109Z" fill="white" fill-opacity="0.02"/>
<path d="M318.414 59.0625V63.4232C318.414 69.5736 313.412 74.5595 307.246 74.5595V74.5595C301.078 74.5595 296.076 69.5736 296.076 63.4232V59.8112C296.076 53.7074 291.113 48.7595 284.994 48.7595V48.7595C278.872 48.7595 273.909 53.7074 273.909 59.8112V64.2565" stroke="white" stroke-opacity="0.02" stroke-width="12.1986" stroke-linecap="round" stroke-linejoin="round"/>
</g>
<path d="M261.96 134.541C262.118 134.427 262.244 134.271 262.323 134.09C262.403 133.908 262.433 133.708 262.412 133.51V88.8286C262.393 88.2731 262.238 87.7318 261.96 87.2561L264.635 85.6579C264.912 86.1324 265.068 86.6724 265.087 87.2267V131.911C265.109 132.11 265.078 132.31 264.998 132.491C264.919 132.673 264.793 132.829 264.635 132.943L261.96 134.541Z" fill="#263238"/>
<path d="M261.96 87.2561C261.701 86.7699 261.326 86.3605 260.871 86.0666L212.021 56.8709C210.32 55.8545 207.559 55.8545 205.859 56.8709L204.792 57.508C204.355 57.7407 203.988 58.0904 203.727 58.5206C203.466 58.9507 203.321 59.4455 203.308 59.9533V108.321C203.322 107.813 203.466 107.317 203.727 106.887C203.988 106.456 204.356 106.106 204.792 105.872L205.859 105.235C207.559 104.218 210.32 104.218 212.021 105.235L260.864 134.43C261.012 134.564 261.196 134.647 261.391 134.667C261.587 134.687 261.783 134.643 261.953 134.541C262.123 134.44 262.258 134.286 262.339 134.101C262.42 133.916 262.443 133.709 262.405 133.51V88.8286C262.388 88.2738 262.235 87.7325 261.96 87.2561Z" fill="#37474F"/>
<path d="M203.443 60.7819C203.055 59.563 203.536 58.2593 204.795 57.5081L205.862 56.871C207.563 55.8546 210.324 55.8546 212.024 56.871L260.864 86.0667C261.319 86.3609 261.693 86.7703 261.953 87.2562L264.628 85.6579C264.368 85.172 263.993 84.7617 263.539 84.4648L213.355 54.481C210.84 52.9748 207.044 52.9748 204.525 54.481L203.457 55.1144C202.726 55.535 202.096 56.1234 201.618 56.8344C201.139 57.5455 200.824 58.3604 200.697 59.2168C200.662 59.4607 200.644 59.7068 200.643 59.9533C200.661 61.4403 201.234 62.8626 202.241 63.9232L204.173 62.0156C203.843 61.6676 203.594 61.2471 203.443 60.7856" fill="#5A6376"/>
<path d="M258.85 94.5698V88.4456L209.787 59.1321C209.311 58.8743 208.783 58.7396 208.246 58.7396C207.709 58.7396 207.181 58.8743 206.706 59.1321L206.172 59.4488C205.954 59.5653 205.771 59.7403 205.64 59.9554C205.51 60.1704 205.438 60.4177 205.432 60.6714V71.2662L258.85 94.5698Z" fill="#00A656"/>
<path opacity="0.2" d="M258.85 94.5698V88.4456L209.787 59.1321C209.311 58.8743 208.783 58.7396 208.246 58.7396C207.709 58.7396 207.181 58.8743 206.706 59.1321L206.172 59.4488C205.954 59.5653 205.771 59.7403 205.64 59.9554C205.51 60.1704 205.438 60.4177 205.432 60.6714V71.2662L258.85 94.5698Z" fill="black"/>
<path d="M210.452 57.9352C209.771 57.5652 209.013 57.3719 208.244 57.3719C207.475 57.3719 206.718 57.5652 206.037 57.9352L205.507 58.2519C205.141 58.4606 204.827 58.7528 204.587 59.1064C204.347 59.4599 204.188 59.8654 204.123 60.2921C204.106 60.414 204.098 60.5371 204.098 60.6603V62.3175L205.432 63.7611V60.6898C205.438 60.436 205.51 60.1886 205.64 59.9734C205.77 59.7583 205.954 59.5834 206.172 59.4672L206.706 59.1505C207.183 58.8998 207.711 58.7691 208.246 58.7691C208.781 58.7691 209.309 58.8998 209.787 59.1505L258.85 88.464L260.188 87.6649L210.452 57.9352Z" fill="#00A656"/>
<path opacity="0.3" d="M210.452 57.9352C209.771 57.5652 209.013 57.3719 208.244 57.3719C207.475 57.3719 206.718 57.5652 206.037 57.9352L205.507 58.2519C205.141 58.4606 204.827 58.7528 204.587 59.1064C204.347 59.4599 204.188 59.8654 204.123 60.2921C204.106 60.414 204.098 60.5371 204.098 60.6603V62.3175L205.432 63.7611V60.6898C205.438 60.436 205.51 60.1886 205.64 59.9734C205.77 59.7583 205.954 59.5834 206.172 59.4672L206.706 59.1505C207.183 58.8998 207.711 58.7691 208.246 58.7691C208.781 58.7691 209.309 58.8998 209.787 59.1505L258.85 88.464L260.188 87.6649L210.452 57.9352Z" fill="black"/>
<path d="M258.85 88.4456L260.188 87.6465V95.2695L258.85 94.4483V88.4456Z" fill="#00A656"/>
<path opacity="0.4" d="M258.85 88.4456L260.188 87.6465V95.2695L258.85 94.4483V88.4456Z" fill="black"/>
<path d="M260.565 128.943V94.5405L211.637 65.2711C211.134 64.9716 210.564 64.8139 209.984 64.8139C209.404 64.8139 208.834 64.9716 208.331 65.2711L207.093 66.0076V98.827L259.035 129.864C259.191 129.954 259.367 130.001 259.546 129.999C259.724 129.998 259.899 129.948 260.054 129.855C260.208 129.762 260.337 129.629 260.426 129.469C260.516 129.31 260.564 129.128 260.565 128.943Z" fill="#263238"/>
<path d="M255.809 127.658L256.648 127.157C256.787 127.062 256.902 126.936 256.985 126.787C257.067 126.638 257.115 126.471 257.125 126.299V90.9462C257.116 90.774 257.068 90.6064 256.985 90.4568C256.903 90.3071 256.787 90.1796 256.648 90.0845L212.359 63.6065C212.21 63.5294 212.046 63.4893 211.88 63.4893C211.714 63.4893 211.55 63.5294 211.402 63.6065L210.562 64.1073C210.423 64.2017 210.307 64.3285 210.224 64.4775C210.14 64.6264 210.092 64.7935 210.082 64.9654V100.318C210.091 100.49 210.139 100.657 210.222 100.806C210.305 100.955 210.42 101.082 210.559 101.176L254.852 127.658C255 127.735 255.164 127.775 255.33 127.775C255.496 127.775 255.66 127.735 255.809 127.658Z" fill="#00A656"/>
<path d="M254.852 91.1525L210.562 64.6783C210.299 64.5199 210.082 64.6488 210.082 64.9655V100.319C210.091 100.49 210.139 100.657 210.222 100.806C210.305 100.955 210.42 101.082 210.559 101.177L254.852 127.658C255.115 127.817 255.328 127.688 255.328 127.375V92.0216C255.32 91.8482 255.273 91.6791 255.19 91.5281C255.107 91.3771 254.991 91.2484 254.852 91.1525Z" fill="#00A656"/>
<path d="M254.852 91.1525L210.562 64.6783C210.299 64.5199 210.082 64.6488 210.082 64.9655V100.319C210.091 100.49 210.139 100.657 210.222 100.806C210.305 100.955 210.42 101.082 210.559 101.177L254.852 127.658C255.115 127.817 255.328 127.688 255.328 127.375V92.0216C255.32 91.8482 255.273 91.6791 255.19 91.5281C255.107 91.3771 254.991 91.2484 254.852 91.1525Z" fill="#00A656"/>
<path d="M255.172 91.5209L256.951 90.4492C257.04 90.595 257.089 90.763 257.093 90.9353V126.288C257.084 126.46 257.037 126.628 256.955 126.777C256.873 126.927 256.758 127.055 256.62 127.15L255.78 127.651C255.647 127.72 255.501 127.76 255.352 127.768C255.203 127.775 255.055 127.751 254.916 127.695C255.136 127.769 255.3 127.636 255.3 127.36V92.007C255.3 91.836 255.256 91.6682 255.172 91.5209Z" fill="#00A656"/>
<path d="M255.328 96.0467L257.125 94.9751V104.218L255.328 105.279V96.0467Z" fill="#00A656"/>
<path opacity="0.2" d="M255.328 96.0467L257.125 94.9751V104.218L255.328 105.279V96.0467Z" fill="black"/>
<path opacity="0.2" d="M210.082 68.998L255.328 96.0468V105.279L210.082 78.2303V68.998Z" fill="black"/>
<path d="M252.536 116.253V122.296C252.536 122.749 252.23 122.933 251.849 122.709L245.719 119.093C245.519 118.958 245.353 118.776 245.234 118.563C245.114 118.349 245.045 118.109 245.032 117.863V111.819C245.032 111.366 245.342 111.182 245.719 111.411C247.391 112.409 250.177 114.025 251.849 115.023C252.049 115.158 252.215 115.339 252.334 115.553C252.454 115.767 252.523 116.007 252.536 116.253Z" fill="#5A6376"/>
<mask id="mask0_3_974" style="mask-type:luminance" maskUnits="userSpaceOnUse" x="245" y="111" width="8" height="12">
<path d="M252.536 116.253V122.296C252.536 122.749 252.23 122.933 251.849 122.709L245.719 119.093C245.519 118.958 245.353 118.776 245.234 118.563C245.114 118.349 245.045 118.109 245.032 117.863V111.819C245.032 111.366 245.342 111.182 245.719 111.411C247.391 112.409 250.177 114.025 251.849 115.023C252.049 115.158 252.215 115.339 252.334 115.553C252.454 115.767 252.523 116.007 252.536 116.253Z" fill="white"/>
</mask>
<g mask="url(#mask0_3_974)">
<path d="M253.742 118.647L253.898 118.367L243.826 112.398L243.67 112.674L253.742 118.647Z" fill="white"/>
<path d="M250.12 116.202H249.81V119.28H250.12V116.202Z" fill="white"/>
<path d="M247.758 114.854H247.448V117.929H247.758V114.854Z" fill="white"/>
<path d="M253.742 121.733L253.898 121.453L243.826 115.484L243.67 115.76L253.742 121.733Z" fill="white"/>
</g>
<path d="M228.752 85.6765C228.497 85.1649 228.368 84.5953 228.379 84.0193C228.379 83.397 228.5 82.9919 228.735 82.8077C228.969 82.6236 229.329 82.6715 229.802 82.944C229.988 83.055 230.162 83.1859 230.321 83.3344C230.471 83.4704 230.604 83.625 230.716 83.7947C230.74 83.8262 230.754 83.8649 230.755 83.9052C230.756 83.9326 230.749 83.9595 230.734 83.9825L230.595 84.2329C230.578 84.2587 230.56 84.2697 230.538 84.2587C230.514 84.2372 230.492 84.2125 230.474 84.185C230.313 83.9636 230.111 83.7772 229.88 83.6363C229.61 83.4743 229.4 83.4559 229.251 83.5811C229.16 83.6951 229.094 83.8273 229.055 83.9693C229.016 84.1112 229.007 84.2599 229.026 84.406C229.016 84.7886 229.096 85.1681 229.261 85.5108C229.403 85.8031 229.625 86.0463 229.898 86.2105C230.08 86.3406 230.3 86.4029 230.521 86.3872C230.543 86.3811 230.566 86.3811 230.588 86.3872C230.614 86.4122 230.632 86.4441 230.642 86.4793L230.795 86.9359C230.798 86.9604 230.798 86.9852 230.795 87.0096C230.795 87.0317 230.795 87.0501 230.745 87.0648C230.542 87.1422 230.225 87.0648 229.798 86.7997C229.356 86.533 228.994 86.1441 228.752 85.6765Z" fill="#5A6376"/>
<path d="M231.165 87.4735C231.134 87.4107 231.12 87.3411 231.122 87.271V84.0561C231.122 83.9751 231.136 83.9235 231.165 83.9014C231.189 83.8756 231.236 83.883 231.3 83.9235L232.292 84.5164C232.606 84.6884 232.867 84.9488 233.043 85.2674C233.22 85.5861 233.307 85.95 233.292 86.3172C233.304 86.5197 233.264 86.7219 233.175 86.9027C233.138 86.9663 233.086 87.0184 233.024 87.0534C232.961 87.0885 232.89 87.1051 232.819 87.1016L233.232 88.5967C233.234 88.6237 233.234 88.6508 233.232 88.6778C233.232 88.744 233.203 88.7625 233.15 88.7293L232.712 88.4679C232.681 88.4504 232.653 88.4266 232.63 88.3979C232.607 88.3654 232.591 88.3275 232.584 88.2874L232.228 86.877L231.759 86.5971V87.6614C231.759 87.7387 231.759 87.7903 231.72 87.8123C231.68 87.8344 231.648 87.8124 231.584 87.7866L231.289 87.6135C231.236 87.5801 231.192 87.5315 231.165 87.4735ZM232.2 86.2067C232.349 86.2951 232.46 86.3209 232.534 86.2767C232.609 86.2325 232.648 86.122 232.648 85.9342C232.653 85.7694 232.618 85.6059 232.545 85.4592C232.473 85.3273 232.367 85.2189 232.239 85.1461L231.769 84.8663V85.9526L232.2 86.2067Z" fill="#5A6376"/>
<path d="M233.655 88.965C233.628 88.9013 233.614 88.8322 233.616 88.7625V85.5439C233.61 85.4891 233.624 85.4339 233.655 85.3892C233.683 85.3671 233.73 85.3892 233.79 85.4113L235.423 86.3872C235.478 86.4161 235.524 86.4609 235.555 86.5161C235.578 86.5781 235.589 86.6446 235.587 86.7113V86.9138C235.594 86.9688 235.583 87.0247 235.555 87.0722C235.53 87.0943 235.487 87.0722 235.423 87.0501L234.263 86.3541V87.2047L235.074 87.6908C235.128 87.7198 235.173 87.7647 235.203 87.8197C235.229 87.8809 235.241 87.9478 235.238 88.0149V88.2064C235.238 88.2874 235.238 88.3427 235.203 88.3648C235.167 88.3869 235.135 88.3648 235.074 88.339L234.263 87.8566V88.7183L235.42 89.4106C235.475 89.4387 235.52 89.4854 235.548 89.5432C235.575 89.6056 235.587 89.6738 235.583 89.7421V89.9372C235.583 90.0219 235.583 90.0735 235.548 90.0919C235.512 90.1103 235.484 90.0919 235.42 90.0661L233.79 89.0939C233.735 89.064 233.688 89.0195 233.655 88.965Z" fill="#5A6376"/>
<path d="M235.914 90.313C235.884 90.2502 235.869 90.1806 235.871 90.1104V86.8918C235.868 86.8644 235.87 86.8365 235.877 86.8099C235.885 86.7833 235.897 86.7586 235.914 86.7372C235.939 86.7151 235.985 86.7372 236.049 86.7593L236.875 87.2527C237.303 87.5006 237.656 87.8664 237.896 88.3096C238.146 88.8056 238.268 89.3598 238.251 89.9189C238.251 90.5474 238.133 90.9415 237.896 91.1011C237.661 91.2594 237.319 91.2078 236.878 90.9427L236.053 90.4492C235.994 90.4205 235.945 90.3727 235.914 90.313ZM236.907 90.313C237.144 90.4529 237.318 90.4676 237.43 90.3572C237.578 90.1139 237.638 89.8244 237.6 89.5396C237.616 89.1908 237.557 88.8427 237.43 88.5196C237.315 88.2768 237.133 88.0754 236.907 87.9414L236.519 87.7131V90.0847L236.907 90.313Z" fill="#5A6376"/>
<path d="M238.611 91.9223C238.581 91.8608 238.566 91.7924 238.568 91.7234V88.5048C238.565 88.4774 238.567 88.4495 238.574 88.4229C238.581 88.3963 238.594 88.3715 238.611 88.3502C238.636 88.3281 238.682 88.3502 238.746 88.3723L239.041 88.549C239.099 88.5797 239.147 88.6287 239.176 88.689C239.206 88.7519 239.219 88.8216 239.216 88.8915V92.1101C239.216 92.1911 239.216 92.2427 239.176 92.2648C239.137 92.2869 239.105 92.2648 239.041 92.239L238.746 92.0622C238.688 92.0315 238.64 91.9825 238.611 91.9223Z" fill="#5A6376"/>
<path d="M240.311 92.9422C240.282 92.8791 240.269 92.8095 240.272 92.7397V89.9446L239.625 89.5763C239.572 89.5453 239.528 89.501 239.497 89.4474C239.47 89.3849 239.458 89.3168 239.461 89.2486V89.046C239.461 88.965 239.461 88.9134 239.497 88.8913C239.532 88.8692 239.564 88.8913 239.625 88.9134L241.567 90.0735C241.623 90.1027 241.669 90.1489 241.699 90.206C241.727 90.2695 241.74 90.3388 241.738 90.4086V90.6074C241.738 90.6885 241.738 90.74 241.699 90.7584C241.66 90.7768 241.631 90.7584 241.567 90.7363L240.941 90.3349V93.13C240.941 93.211 240.941 93.2589 240.898 93.281C240.856 93.3031 240.827 93.281 240.76 93.2552L240.468 93.0821C240.403 93.0526 240.349 93.0039 240.311 92.9422Z" fill="#5A6376"/>
<path d="M243.695 94.6032C243.436 94.0941 243.306 93.5251 243.318 92.9497C243.318 92.3237 243.439 91.9186 243.673 91.7382C243.908 91.5577 244.271 91.5982 244.741 91.8707C244.927 91.9812 245.101 92.1121 245.26 92.2611C245.409 92.398 245.541 92.5525 245.655 92.7214C245.68 92.7522 245.694 92.7914 245.694 92.8319C245.696 92.8606 245.688 92.8891 245.673 92.9129L245.534 93.1597C245.534 93.1891 245.498 93.1965 245.481 93.1854C245.454 93.1672 245.431 93.1433 245.413 93.1155C245.254 92.8912 245.051 92.7032 244.819 92.5631C244.549 92.4047 244.339 92.3863 244.189 92.5115C244.099 92.6254 244.032 92.7576 243.993 92.8996C243.955 93.0416 243.945 93.1903 243.965 93.3364C243.954 93.7191 244.034 94.0988 244.2 94.4412C244.343 94.7348 244.566 94.9791 244.84 95.1446C245.021 95.275 245.24 95.3374 245.459 95.3213C245.481 95.3132 245.505 95.3132 245.527 95.3213C245.553 95.3456 245.572 95.3777 245.58 95.4134L245.737 95.8664C245.741 95.892 245.741 95.9181 245.737 95.9437C245.737 95.9658 245.737 95.9805 245.691 95.9953C245.484 96.0763 245.168 95.9953 244.741 95.7338C244.296 95.4671 243.933 95.075 243.695 94.6032Z" fill="#5A6376"/>
<path d="M245.89 96.2382C245.886 96.2125 245.886 96.1865 245.89 96.1608L246.907 93.421C246.916 93.3837 246.937 93.351 246.968 93.3289C246.985 93.3243 247.003 93.3239 247.02 93.3278C247.037 93.3316 247.054 93.3396 247.067 93.351L247.352 93.5241C247.391 93.5445 247.424 93.5749 247.448 93.6125C247.474 93.6647 247.493 93.7205 247.505 93.7782L248.526 97.7333C248.529 97.7639 248.529 97.7947 248.526 97.8254C248.526 97.888 248.501 97.9064 248.455 97.8769L247.978 97.5934C247.947 97.5757 247.92 97.5505 247.9 97.5197C247.879 97.4832 247.863 97.4434 247.854 97.4019L247.672 96.6653L246.719 96.0945L246.541 96.6285C246.541 96.6653 246.512 96.6874 246.495 96.6911C246.477 96.6948 246.452 96.6911 246.413 96.669L245.94 96.3855C245.918 96.3685 245.902 96.3456 245.894 96.3194C245.885 96.2933 245.883 96.2651 245.89 96.2382ZM247.544 95.9436L247.217 94.5736L246.889 95.5495L247.544 95.9436Z" fill="#5A6376"/>
<path d="M248.914 98.0833C248.885 98.0202 248.871 97.9506 248.875 97.8807V94.6621C248.871 94.635 248.872 94.6073 248.879 94.5807C248.886 94.5542 248.898 94.5293 248.914 94.5075C248.942 94.4854 248.989 94.5075 249.049 94.5296L250.045 95.1262C250.359 95.2981 250.619 95.5585 250.796 95.8771C250.973 96.1958 251.059 96.5597 251.045 96.9269C251.058 97.1288 251.016 97.3304 250.924 97.5088C250.888 97.573 250.836 97.6259 250.773 97.6616C250.711 97.6973 250.64 97.7145 250.568 97.7113L250.981 99.2065C250.984 99.2334 250.984 99.2606 250.981 99.2875C250.981 99.3538 250.956 99.3685 250.899 99.3354L250.465 99.0739C250.433 99.0577 250.404 99.0352 250.38 99.0076C250.358 98.9725 250.342 98.9339 250.333 98.8935L249.978 97.4867L249.512 97.2068V98.2527C249.519 98.3076 249.505 98.3632 249.472 98.4074C249.444 98.4295 249.401 98.4074 249.334 98.3816L249.038 98.2048C248.988 98.1754 248.945 98.1337 248.914 98.0833ZM249.949 96.8165C250.099 96.9049 250.212 96.927 250.287 96.8864C250.362 96.8459 250.397 96.7281 250.397 96.5403C250.403 96.3769 250.369 96.2147 250.298 96.0689C250.224 95.9366 250.117 95.8272 249.988 95.7522L249.522 95.476V96.5587L249.949 96.8165Z" fill="#5A6376"/>
<path d="M251.408 99.5711C251.378 99.5095 251.363 99.4411 251.365 99.3722V96.1536C251.365 96.0726 251.379 96.021 251.408 95.9989C251.436 95.9768 251.479 95.9989 251.543 96.021L252.368 96.5145C252.797 96.7599 253.151 97.1248 253.389 97.5677C253.639 98.0638 253.761 98.6179 253.745 99.177C253.745 99.8068 253.628 100.201 253.389 100.363C253.151 100.525 252.813 100.47 252.372 100.204L251.543 99.7257C251.483 99.69 251.436 99.6359 251.408 99.5711ZM252.4 99.5711C252.637 99.711 252.812 99.7257 252.923 99.6153C253.037 99.5085 253.094 99.247 253.094 98.8014C253.11 98.4526 253.051 98.1044 252.923 97.7813C252.81 97.5379 252.627 97.3362 252.4 97.2032L252.016 96.9711V99.3427L252.4 99.5711Z" fill="#5A6376"/>
<g opacity="0.15">
<path d="M238.611 91.9224C238.581 91.8609 238.566 91.7925 238.568 91.7235V88.5049C238.565 88.4775 238.567 88.4496 238.574 88.423C238.581 88.3964 238.594 88.3716 238.611 88.3502C238.636 88.3281 238.682 88.3502 238.746 88.3723L239.041 88.5491C239.099 88.5798 239.147 88.6288 239.176 88.689C239.206 88.752 239.219 88.8217 239.216 88.8916V92.1102C239.216 92.1912 239.216 92.2427 239.176 92.2648C239.137 92.2869 239.105 92.2649 239.041 92.2391L238.746 92.0623C238.688 92.0316 238.64 91.9826 238.611 91.9224Z" fill="#5A6376"/>
</g>
<path d="M216.671 93.1669L218.417 94.2128C218.538 94.2928 218.638 94.4013 218.71 94.5294C218.782 94.6575 218.823 94.8014 218.83 94.9493V95.5017C218.83 95.7742 218.645 95.87 218.417 95.7485L216.671 94.7026C216.551 94.6222 216.451 94.5135 216.379 94.3855C216.307 94.2575 216.266 94.1138 216.258 93.9661V93.4137C216.258 93.1412 216.443 93.0307 216.671 93.1669Z" fill="#00A656"/>
<path d="M212.814 90.8617L214.561 91.9075C214.681 91.9879 214.781 92.0966 214.853 92.2246C214.924 92.3526 214.966 92.4963 214.974 92.644V93.1964C214.974 93.4689 214.789 93.5647 214.561 93.4432L212.814 92.3973C212.694 92.3169 212.594 92.2082 212.523 92.0802C212.451 91.9522 212.409 91.8085 212.402 91.6608V91.1084C212.402 90.8359 212.587 90.7254 212.814 90.8617Z" fill="#00A656"/>
<path d="M234.893 107.897L213.12 94.8868C212.743 94.6585 212.437 94.8426 212.437 95.2956V95.9621C212.45 96.2082 212.518 96.4477 212.637 96.6614C212.756 96.875 212.921 97.0568 213.12 97.1921L234.893 110.199C235.274 110.427 235.58 110.243 235.58 109.79V109.124C235.567 108.878 235.499 108.638 235.379 108.425C235.26 108.212 235.093 108.031 234.893 107.897Z" fill="#00A656"/>
<path d="M216.671 93.1669L218.417 94.2128C218.538 94.2928 218.638 94.4013 218.71 94.5294C218.782 94.6575 218.823 94.8014 218.83 94.9493V95.5017C218.83 95.7742 218.645 95.87 218.417 95.7485L216.671 94.7026C216.551 94.6222 216.451 94.5135 216.379 94.3855C216.307 94.2575 216.266 94.1138 216.258 93.9661V93.4137C216.258 93.1412 216.443 93.0307 216.671 93.1669Z" fill="#5A6376"/>
<path d="M212.814 90.8617L214.561 91.9075C214.681 91.9879 214.781 92.0966 214.853 92.2246C214.924 92.3526 214.966 92.4963 214.974 92.644V93.1964C214.974 93.4689 214.789 93.5647 214.561 93.4432L212.814 92.3973C212.694 92.3169 212.594 92.2082 212.523 92.0802C212.451 91.9522 212.409 91.8085 212.402 91.6608V91.1084C212.402 90.8359 212.587 90.7254 212.814 90.8617Z" fill="#5A6376"/>
<path d="M234.893 107.897L213.12 94.8868C212.743 94.6585 212.437 94.8426 212.437 95.2956V95.9621C212.45 96.2082 212.518 96.4477 212.637 96.6614C212.756 96.875 212.921 97.0568 213.12 97.1921L234.893 110.199C235.274 110.427 235.58 110.243 235.58 109.79V109.124C235.567 108.878 235.499 108.638 235.379 108.425C235.26 108.212 235.093 108.031 234.893 107.897Z" fill="#5A6376"/>
<path d="M212.835 84.5865L212.917 84.6344C213.053 84.7353 213.164 84.8679 213.241 85.0215C213.319 85.175 213.36 85.3451 213.362 85.5182V87.2932C213.362 87.632 213.163 87.7941 212.91 87.6615L212.843 87.6247C212.705 87.5281 212.592 87.3987 212.514 87.2474C212.435 87.0961 212.393 86.9274 212.391 86.7556V84.9437C212.401 84.5976 212.601 84.4392 212.835 84.5865Z" fill="#FAFAFA"/>
<path d="M215.148 85.9712L215.226 86.0191C215.362 86.1193 215.474 86.2511 215.551 86.4039C215.629 86.5568 215.671 86.7264 215.674 86.8992V88.6779C215.674 89.0204 215.472 89.1824 215.223 89.0462L215.151 89.0057C215.014 88.9093 214.901 88.78 214.822 88.6286C214.744 88.4773 214.702 88.3084 214.7 88.1366V86.321C214.7 85.9786 214.899 85.8239 215.148 85.9712Z" fill="#FAFAFA"/>
<path d="M217.46 87.3521L217.542 87.4C217.678 87.501 217.789 87.6336 217.866 87.7871C217.944 87.9406 217.985 88.1108 217.987 88.2838V90.0589C217.987 90.3977 217.784 90.5597 217.535 90.4271L217.468 90.3903C217.33 90.2942 217.217 90.1649 217.138 90.0135C217.059 89.8621 217.017 89.6931 217.016 89.5212V87.7094C217.001 87.3632 217.201 87.2048 217.46 87.3521Z" fill="#FAFAFA"/>
<path d="M219.744 88.7367L219.826 88.7846C219.962 88.8852 220.072 89.0172 220.15 89.17C220.227 89.3228 220.268 89.4922 220.271 89.6647V91.4397C220.271 91.7822 220.068 91.9442 219.819 91.808L219.752 91.7675C219.614 91.6709 219.502 91.5415 219.423 91.3902C219.344 91.2389 219.302 91.0702 219.3 90.8984V89.0829C219.3 88.7441 219.499 88.5894 219.744 88.7367Z" fill="#FAFAFA"/>
<path d="M223.601 91.0126L223.683 91.0604C223.819 91.1614 223.93 91.294 224.007 91.4475C224.084 91.601 224.125 91.7712 224.127 91.9443V93.7193C224.127 94.0581 223.925 94.2201 223.676 94.0875L223.608 94.0507C223.471 93.9542 223.358 93.8247 223.279 93.6734C223.201 93.5221 223.158 93.3534 223.156 93.1816V91.3698C223.153 91.0236 223.355 90.8653 223.601 91.0126Z" fill="#FAFAFA"/>
<path d="M225.899 92.3972L225.981 92.4451C226.116 92.5457 226.227 92.6777 226.304 92.8305C226.382 92.9833 226.423 93.1527 226.426 93.3252V95.1002C226.426 95.439 226.223 95.6011 225.974 95.4685L225.903 95.4317C225.765 95.3351 225.653 95.2057 225.574 95.0544C225.495 94.9031 225.453 94.7344 225.451 94.5626V92.7286C225.454 92.4046 225.643 92.2499 225.899 92.3972Z" fill="#FAFAFA"/>
<path d="M228.201 93.7783L228.279 93.8262C228.416 93.9268 228.528 94.0592 228.605 94.2127C228.683 94.3662 228.725 94.5366 228.728 94.71V96.485C228.728 96.8238 228.525 96.9859 228.276 96.8533L228.205 96.8128C228.068 96.7168 227.955 96.588 227.876 96.4373C227.798 96.2867 227.755 96.1186 227.753 95.9474V94.1282C227.753 93.7894 227.952 93.631 228.201 93.7783Z" fill="#FAFAFA"/>
<path d="M230.499 95.1629L230.581 95.2107C230.716 95.3113 230.827 95.4433 230.904 95.5962C230.982 95.749 231.023 95.9184 231.026 96.0909V97.8843C231.026 98.2231 230.823 98.3852 230.574 98.2526L230.506 98.2158C230.369 98.1192 230.256 97.9898 230.178 97.8385C230.099 97.6872 230.057 97.5185 230.055 97.3467V95.5348C230.055 95.1702 230.268 95.0156 230.499 95.1629Z" fill="#FAFAFA"/>
<path d="M234.356 97.4388L234.438 97.4867C234.573 97.5876 234.684 97.7202 234.762 97.8737C234.839 98.0272 234.88 98.1974 234.882 98.3705V100.146C234.882 100.484 234.68 100.646 234.431 100.514L234.363 100.473C234.226 100.377 234.113 100.248 234.035 100.098C233.956 99.9472 233.914 99.7791 233.911 99.6078V97.796C233.911 97.4462 234.11 97.2915 234.356 97.4388Z" fill="#FAFAFA"/>
<path d="M236.672 98.8234L236.754 98.8713C236.889 98.9719 237 99.1039 237.077 99.2567C237.154 99.4096 237.196 99.579 237.198 99.7514V101.526C237.198 101.865 236.999 102.027 236.747 101.895L236.679 101.858C236.542 101.761 236.429 101.632 236.35 101.481C236.272 101.329 236.229 101.161 236.227 100.989V99.177C236.209 98.8308 236.409 98.6761 236.672 98.8234Z" fill="#FAFAFA"/>
<path d="M238.956 100.204L239.034 100.252C239.171 100.353 239.282 100.485 239.36 100.639C239.438 100.792 239.48 100.963 239.482 101.136V102.908C239.482 103.25 239.28 103.412 239.031 103.276L238.959 103.235C238.822 103.139 238.709 103.01 238.63 102.858C238.552 102.707 238.51 102.538 238.508 102.366V100.558C238.508 100.212 238.707 100.057 238.956 100.204Z" fill="#FAFAFA"/>
<path d="M241.254 101.585L241.336 101.637C241.471 101.738 241.582 101.87 241.659 102.022C241.736 102.175 241.778 102.345 241.781 102.517V104.292C241.781 104.631 241.578 104.793 241.329 104.66L241.261 104.624C241.124 104.527 241.01 104.398 240.932 104.247C240.853 104.095 240.811 103.926 240.809 103.754V101.935C240.806 101.596 241.009 101.438 241.254 101.585Z" fill="#FAFAFA"/>
<path d="M245.111 103.865L245.192 103.913C245.328 104.014 245.439 104.146 245.517 104.3C245.594 104.453 245.635 104.624 245.637 104.797V106.568C245.637 106.91 245.434 107.072 245.185 106.936L245.118 106.896C244.98 106.8 244.866 106.671 244.787 106.519C244.709 106.368 244.667 106.199 244.666 106.027V104.218C244.666 103.872 244.855 103.718 245.111 103.865Z" fill="#FAFAFA"/>
<path d="M247.409 105.249L247.491 105.301C247.626 105.402 247.737 105.534 247.814 105.686C247.891 105.839 247.933 106.009 247.935 106.181V107.956C247.935 108.295 247.733 108.457 247.484 108.324L247.416 108.288C247.279 108.191 247.166 108.062 247.087 107.91C247.009 107.759 246.966 107.59 246.964 107.419V105.607C246.964 105.249 247.163 105.098 247.409 105.249Z" fill="#FAFAFA"/>
<path d="M249.707 106.631L249.789 106.678C249.924 106.779 250.035 106.911 250.112 107.064C250.19 107.217 250.231 107.386 250.234 107.559V109.334C250.234 109.676 250.034 109.838 249.782 109.702L249.714 109.661C249.577 109.565 249.464 109.436 249.385 109.284C249.306 109.133 249.264 108.964 249.262 108.792V106.98C249.262 106.638 249.479 106.483 249.707 106.631Z" fill="#FAFAFA"/>
<path d="M252.009 108.012L252.087 108.059C252.224 108.16 252.335 108.292 252.413 108.446C252.491 108.599 252.533 108.77 252.536 108.943V110.718C252.536 111.057 252.333 111.219 252.084 111.087L252.013 111.05C251.875 110.953 251.762 110.824 251.684 110.672C251.605 110.521 251.563 110.352 251.561 110.181V108.369C251.561 108.023 251.76 107.864 252.009 108.012Z" fill="#FAFAFA"/>
<path d="M202.241 112.283L237.127 150.1C237.483 150.494 237.839 150.612 238.045 150.468C238.251 150.324 238.355 150.052 238.355 149.584V104.929C238.331 104.366 238.211 103.813 237.999 103.294C237.798 102.729 237.497 102.208 237.109 101.758L202.241 63.9195C201.235 62.8598 200.662 61.439 200.643 59.9533V108.313C200.661 109.8 201.234 111.223 202.241 112.283Z" fill="#37474F"/>
<path d="M203.134 69.3587C203.087 69.3587 203.041 69.3393 203.008 69.3048C202.975 69.2703 202.956 69.2234 202.956 69.1746V68.6222C202.956 68.5854 202.967 68.5496 202.988 68.5194C203.008 68.4892 203.037 68.466 203.07 68.4528C203.102 68.4388 203.137 68.4352 203.172 68.4424C203.206 68.4497 203.237 68.4674 203.262 68.4933L203.618 68.8947C203.634 68.9118 203.647 68.9322 203.656 68.9546C203.666 68.9771 203.67 69.0011 203.67 69.0254C203.67 69.0497 203.666 69.0738 203.656 69.0963C203.647 69.1187 203.634 69.1391 203.618 69.1562C203.601 69.1733 203.582 69.1869 203.561 69.1962C203.539 69.2055 203.516 69.2103 203.493 69.2103C203.47 69.2103 203.447 69.2055 203.425 69.1962C203.404 69.1869 203.385 69.1733 203.369 69.1562L203.304 69.0899V69.1599C203.306 69.1846 203.303 69.2096 203.296 69.2331C203.288 69.2567 203.276 69.2785 203.26 69.297C203.244 69.3156 203.225 69.3307 203.203 69.3413C203.181 69.3519 203.158 69.3578 203.134 69.3587Z" fill="#5A6376"/>
<path d="M235.864 142.812C235.817 142.811 235.773 142.791 235.74 142.757C235.706 142.723 235.687 142.676 235.686 142.628V141.541C235.686 141.493 235.705 141.446 235.738 141.411C235.772 141.377 235.817 141.357 235.864 141.357C235.911 141.357 235.957 141.377 235.99 141.411C236.023 141.446 236.042 141.493 236.042 141.541V142.628C236.042 142.677 236.023 142.723 235.99 142.758C235.957 142.793 235.911 142.812 235.864 142.812ZM235.864 139.914C235.817 139.914 235.772 139.894 235.738 139.86C235.705 139.825 235.686 139.778 235.686 139.73V138.651C235.686 138.602 235.705 138.555 235.738 138.52C235.772 138.486 235.817 138.466 235.864 138.466C235.911 138.466 235.957 138.486 235.99 138.52C236.023 138.555 236.042 138.602 236.042 138.651V139.737C236.042 139.786 236.023 139.833 235.99 139.867C235.957 139.902 235.911 139.921 235.864 139.921V139.914ZM235.864 137.016C235.817 137.016 235.772 136.996 235.738 136.962C235.705 136.927 235.686 136.88 235.686 136.831V135.745C235.686 135.696 235.705 135.649 235.738 135.615C235.772 135.58 235.817 135.561 235.864 135.561C235.911 135.561 235.957 135.58 235.99 135.615C236.023 135.649 236.042 135.696 236.042 135.745V136.831C236.043 136.856 236.039 136.881 236.031 136.904C236.022 136.927 236.009 136.949 235.993 136.966C235.976 136.984 235.956 136.998 235.934 137.008C235.912 137.018 235.888 137.023 235.864 137.023V137.016ZM235.864 134.117C235.817 134.117 235.772 134.098 235.738 134.063C235.705 134.029 235.686 133.982 235.686 133.933V132.828C235.686 132.78 235.705 132.733 235.738 132.698C235.772 132.664 235.817 132.644 235.864 132.644C235.911 132.644 235.957 132.664 235.99 132.698C236.023 132.733 236.042 132.78 236.042 132.828V133.933C236.043 133.958 236.039 133.983 236.031 134.006C236.022 134.029 236.009 134.05 235.993 134.068C235.976 134.086 235.956 134.1 235.934 134.11C235.912 134.12 235.888 134.125 235.864 134.125V134.117ZM235.864 131.219C235.817 131.219 235.772 131.2 235.738 131.165C235.705 131.131 235.686 131.084 235.686 131.035V129.93C235.686 129.881 235.705 129.835 235.738 129.8C235.772 129.765 235.817 129.746 235.864 129.746C235.911 129.746 235.957 129.765 235.99 129.8C236.023 129.835 236.042 129.881 236.042 129.93V131.035C236.043 131.06 236.039 131.085 236.031 131.108C236.022 131.131 236.009 131.152 235.993 131.17C235.976 131.188 235.956 131.202 235.934 131.212C235.912 131.222 235.888 131.226 235.864 131.226V131.219ZM235.864 128.321C235.817 128.321 235.772 128.301 235.738 128.267C235.705 128.232 235.686 128.186 235.686 128.137V127.05C235.687 127.002 235.706 126.956 235.74 126.921C235.773 126.887 235.817 126.867 235.864 126.866C235.911 126.866 235.957 126.886 235.99 126.92C236.023 126.955 236.042 127.002 236.042 127.05V128.137C236.043 128.162 236.039 128.186 236.031 128.21C236.022 128.233 236.009 128.254 235.993 128.272C235.976 128.29 235.956 128.304 235.934 128.314C235.912 128.323 235.888 128.328 235.864 128.328V128.321ZM235.864 125.423C235.817 125.423 235.772 125.403 235.738 125.369C235.705 125.334 235.686 125.287 235.686 125.239V124.152C235.687 124.104 235.706 124.057 235.74 124.023C235.773 123.989 235.817 123.969 235.864 123.968C235.911 123.968 235.957 123.987 235.99 124.022C236.023 124.057 236.042 124.103 236.042 124.152V125.239C236.043 125.263 236.039 125.288 236.031 125.311C236.022 125.334 236.009 125.356 235.993 125.374C235.976 125.391 235.956 125.406 235.934 125.415C235.912 125.425 235.888 125.43 235.864 125.43V125.423ZM235.864 122.528C235.817 122.527 235.773 122.508 235.74 122.473C235.706 122.439 235.687 122.393 235.686 122.344V121.239C235.687 121.191 235.706 121.144 235.74 121.11C235.773 121.076 235.817 121.056 235.864 121.055C235.911 121.055 235.957 121.075 235.99 121.109C236.023 121.144 236.042 121.19 236.042 121.239V122.344C236.043 122.369 236.039 122.394 236.031 122.417C236.022 122.44 236.009 122.461 235.993 122.479C235.976 122.497 235.956 122.511 235.934 122.521C235.912 122.531 235.888 122.536 235.864 122.536V122.528ZM235.864 119.63C235.817 119.629 235.773 119.609 235.74 119.575C235.706 119.541 235.687 119.494 235.686 119.446V118.359C235.686 118.311 235.705 118.264 235.738 118.229C235.772 118.195 235.817 118.175 235.864 118.175C235.911 118.175 235.957 118.195 235.99 118.229C236.023 118.264 236.042 118.311 236.042 118.359V119.446C236.043 119.471 236.039 119.495 236.031 119.519C236.022 119.542 236.009 119.563 235.993 119.581C235.976 119.599 235.956 119.613 235.934 119.623C235.912 119.632 235.888 119.637 235.864 119.637V119.63ZM235.864 116.732C235.817 116.731 235.773 116.711 235.74 116.677C235.706 116.642 235.687 116.596 235.686 116.548V115.461C235.686 115.412 235.705 115.366 235.738 115.331C235.772 115.296 235.817 115.277 235.864 115.277C235.911 115.277 235.957 115.296 235.99 115.331C236.023 115.366 236.042 115.412 236.042 115.461V116.548C236.043 116.572 236.039 116.597 236.031 116.62C236.022 116.644 236.009 116.665 235.993 116.683C235.976 116.7 235.956 116.715 235.934 116.724C235.912 116.734 235.888 116.739 235.864 116.739V116.732ZM235.864 113.834C235.817 113.833 235.773 113.813 235.74 113.779C235.706 113.744 235.687 113.698 235.686 113.649V112.563C235.686 112.514 235.705 112.467 235.738 112.433C235.772 112.398 235.817 112.379 235.864 112.379C235.911 112.379 235.957 112.398 235.99 112.433C236.023 112.467 236.042 112.514 236.042 112.563V113.649C236.043 113.674 236.039 113.699 236.031 113.722C236.022 113.745 236.009 113.766 235.993 113.784C235.976 113.802 235.956 113.816 235.934 113.826C235.912 113.836 235.888 113.841 235.864 113.841V113.834ZM235.864 110.935C235.817 110.935 235.772 110.916 235.738 110.881C235.705 110.847 235.686 110.8 235.686 110.751V109.668C235.686 109.62 235.705 109.573 235.738 109.538C235.772 109.504 235.817 109.484 235.864 109.484C235.911 109.484 235.957 109.504 235.99 109.538C236.023 109.573 236.042 109.62 236.042 109.668V110.773C236.039 110.82 236.018 110.863 235.985 110.894C235.952 110.925 235.909 110.943 235.864 110.943V110.935ZM235.864 108.037C235.817 108.037 235.772 108.018 235.738 107.983C235.705 107.949 235.686 107.902 235.686 107.853V106.767C235.686 106.718 235.705 106.671 235.738 106.636C235.772 106.602 235.817 106.582 235.864 106.582C235.911 106.582 235.957 106.602 235.99 106.636C236.023 106.671 236.042 106.718 236.042 106.767V107.853C236.043 107.878 236.039 107.902 236.031 107.926C236.022 107.949 236.009 107.97 235.993 107.988C235.976 108.006 235.956 108.02 235.934 108.03C235.912 108.039 235.888 108.044 235.864 108.044V108.037ZM235.864 105.124C235.842 105.126 235.819 105.122 235.798 105.115C235.777 105.107 235.757 105.095 235.74 105.079C235.724 105.063 235.71 105.044 235.701 105.022C235.692 105.001 235.687 104.978 235.686 104.955C235.671 104.725 235.618 104.5 235.53 104.288C235.487 104.181 235.448 104.086 235.409 104.005C235.398 103.983 235.391 103.96 235.389 103.936C235.387 103.911 235.39 103.887 235.397 103.864C235.405 103.841 235.416 103.82 235.432 103.802C235.447 103.783 235.466 103.768 235.487 103.758C235.508 103.747 235.531 103.74 235.554 103.738C235.577 103.736 235.601 103.738 235.623 103.746C235.645 103.754 235.666 103.766 235.683 103.782C235.701 103.798 235.715 103.817 235.726 103.839C235.768 103.931 235.814 104.034 235.861 104.156C235.961 104.399 236.022 104.658 236.042 104.922C236.045 104.974 236.028 105.025 235.995 105.064C235.962 105.104 235.915 105.128 235.864 105.132V105.124ZM234.441 102.742C234.393 102.74 234.347 102.719 234.313 102.683L233.602 101.898C233.569 101.863 233.552 101.815 233.553 101.766C233.554 101.717 233.574 101.67 233.609 101.637C233.643 101.603 233.689 101.585 233.736 101.586C233.784 101.588 233.829 101.608 233.861 101.644L234.573 102.428C234.59 102.446 234.603 102.466 234.612 102.488C234.621 102.511 234.625 102.535 234.625 102.559C234.625 102.584 234.621 102.608 234.612 102.63C234.603 102.652 234.59 102.673 234.573 102.69C234.554 102.71 234.531 102.726 234.506 102.736C234.481 102.746 234.454 102.751 234.427 102.749L234.441 102.742ZM232.509 100.642C232.461 100.642 232.415 100.622 232.381 100.587L231.67 99.7991C231.641 99.7633 231.627 99.7176 231.629 99.6712C231.632 99.6248 231.652 99.5811 231.684 99.549C231.716 99.5168 231.759 99.4985 231.804 99.4978C231.849 99.4971 231.893 99.5139 231.926 99.545L232.637 100.333C232.661 100.359 232.676 100.392 232.682 100.427C232.688 100.462 232.684 100.498 232.671 100.531C232.657 100.564 232.635 100.592 232.606 100.611C232.577 100.631 232.544 100.642 232.509 100.642ZM230.578 98.547C230.554 98.5474 230.53 98.5427 230.508 98.5332C230.486 98.5237 230.466 98.5096 230.45 98.4918L229.738 97.7037C229.721 97.6866 229.708 97.6662 229.699 97.6438C229.69 97.6213 229.685 97.5973 229.685 97.573C229.685 97.5487 229.69 97.5246 229.699 97.5022C229.708 97.4797 229.721 97.4594 229.738 97.4422C229.754 97.4251 229.774 97.4115 229.795 97.4022C229.816 97.3929 229.839 97.3881 229.862 97.3881C229.886 97.3881 229.909 97.3929 229.93 97.4022C229.951 97.4115 229.971 97.4251 229.987 97.4422L230.699 98.2303C230.722 98.2564 230.738 98.289 230.743 98.3241C230.749 98.3592 230.745 98.3953 230.732 98.4281C230.718 98.4608 230.696 98.4888 230.667 98.5086C230.638 98.5284 230.605 98.5392 230.57 98.5397L230.578 98.547ZM228.642 96.4516C228.615 96.4581 228.588 96.4578 228.561 96.4508C228.534 96.4437 228.51 96.4301 228.489 96.4111L227.778 95.6267C227.761 95.6096 227.748 95.5892 227.739 95.5668C227.73 95.5443 227.725 95.5203 227.725 95.496C227.725 95.4717 227.73 95.4476 227.739 95.4252C227.748 95.4027 227.761 95.3824 227.778 95.3652C227.794 95.348 227.814 95.3343 227.836 95.3249C227.857 95.3156 227.881 95.3108 227.904 95.3108C227.927 95.3108 227.951 95.3156 227.972 95.3249C227.994 95.3343 228.014 95.348 228.03 95.3652L228.742 96.1496C228.758 96.1668 228.772 96.1871 228.781 96.2096C228.79 96.232 228.794 96.2561 228.794 96.2804C228.794 96.3047 228.79 96.3287 228.781 96.3512C228.772 96.3736 228.758 96.394 228.742 96.4111C228.71 96.44 228.67 96.4569 228.628 96.459L228.642 96.4516ZM226.71 94.3636C226.662 94.3621 226.616 94.3409 226.582 94.3047L225.871 93.5203C225.838 93.4846 225.821 93.437 225.822 93.388C225.823 93.339 225.843 93.2925 225.878 93.2588C225.912 93.2251 225.958 93.2069 226.006 93.2083C226.053 93.2097 226.098 93.2305 226.13 93.2662L226.842 94.0506C226.859 94.0677 226.872 94.088 226.881 94.1105C226.89 94.1329 226.895 94.157 226.895 94.1813C226.895 94.2056 226.89 94.2297 226.881 94.2521C226.872 94.2745 226.859 94.2949 226.842 94.312C226.806 94.3465 226.759 94.365 226.71 94.3636ZM224.779 92.2645C224.731 92.2644 224.684 92.2445 224.65 92.2093L223.939 91.4212C223.91 91.3853 223.896 91.3396 223.899 91.2932C223.901 91.2469 223.921 91.2032 223.953 91.171C223.985 91.1389 224.028 91.1206 224.073 91.1199C224.118 91.1191 224.162 91.136 224.195 91.1671L224.907 91.9552C224.923 91.972 224.936 91.992 224.945 92.0141C224.954 92.0363 224.959 92.06 224.959 92.084C224.959 92.1081 224.954 92.1318 224.945 92.1539C224.936 92.1761 224.923 92.1961 224.907 92.2129C224.889 92.233 224.867 92.2481 224.842 92.2571C224.817 92.2661 224.79 92.2687 224.764 92.2645H224.779ZM222.847 90.1691C222.823 90.1697 222.799 90.1651 222.777 90.1555C222.755 90.146 222.735 90.1318 222.719 90.1138L222.007 89.3258C221.989 89.3088 221.974 89.2882 221.964 89.2651C221.954 89.2421 221.949 89.2171 221.948 89.1918C221.948 89.1665 221.953 89.1413 221.962 89.1179C221.971 89.0946 221.985 89.0734 222.003 89.0559C222.021 89.0384 222.042 89.0248 222.065 89.0161C222.088 89.0073 222.112 89.0036 222.136 89.005C222.161 89.0065 222.185 89.0132 222.207 89.0247C222.228 89.0361 222.248 89.0521 222.263 89.0717L222.975 89.8597C222.991 89.8765 223.005 89.8966 223.014 89.9187C223.023 89.9409 223.027 89.9646 223.027 89.9886C223.027 90.0126 223.023 90.0364 223.014 90.0585C223.005 90.0807 222.991 90.1007 222.975 90.1175C222.956 90.1362 222.934 90.1504 222.909 90.1593C222.885 90.1682 222.858 90.1716 222.833 90.1691H222.847ZM220.911 88.0737C220.887 88.0738 220.863 88.0686 220.841 88.0585C220.819 88.0483 220.799 88.0334 220.783 88.0148L220.072 87.2304C220.056 87.2127 220.043 87.1919 220.035 87.1693C220.026 87.1466 220.022 87.1224 220.023 87.0981C220.024 87.0738 220.029 87.0499 220.039 87.0278C220.048 87.0056 220.062 86.9856 220.079 86.9689C220.096 86.9522 220.116 86.9392 220.138 86.9305C220.16 86.9219 220.183 86.9178 220.207 86.9184C220.23 86.9191 220.253 86.9246 220.275 86.9345C220.296 86.9444 220.315 86.9586 220.331 86.9763L221.043 87.7607C221.06 87.7778 221.073 87.7981 221.082 87.8206C221.091 87.843 221.096 87.8671 221.096 87.8914C221.096 87.9157 221.091 87.9398 221.082 87.9622C221.073 87.9846 221.06 88.005 221.043 88.0221C221.024 88.0411 221.001 88.0555 220.976 88.0644C220.95 88.0733 220.924 88.0765 220.897 88.0737H220.911ZM218.98 85.9746C218.931 85.9745 218.885 85.9546 218.851 85.9194L218.14 85.135C218.123 85.1178 218.11 85.0975 218.101 85.075C218.092 85.0526 218.087 85.0285 218.087 85.0042C218.087 84.9799 218.092 84.9559 218.101 84.9334C218.11 84.911 218.123 84.8906 218.14 84.8735C218.156 84.8564 218.176 84.8427 218.197 84.8334C218.218 84.8241 218.241 84.8193 218.264 84.8193C218.288 84.8193 218.311 84.8241 218.332 84.8334C218.353 84.8427 218.373 84.8564 218.389 84.8735L219.101 85.6579C219.117 85.675 219.13 85.6954 219.139 85.7178C219.148 85.7403 219.153 85.7643 219.153 85.7886C219.153 85.8129 219.148 85.837 219.139 85.8594C219.13 85.8819 219.117 85.9022 219.101 85.9194C219.083 85.9374 219.061 85.9515 219.038 85.961C219.015 85.9705 218.99 85.9751 218.965 85.9746H218.98ZM217.034 83.8902C217.01 83.8906 216.986 83.8859 216.964 83.8764C216.942 83.8669 216.922 83.8528 216.905 83.835L216.194 83.0469C216.177 83.0301 216.164 83.0101 216.155 82.9879C216.146 82.9658 216.142 82.942 216.142 82.918C216.142 82.894 216.146 82.8703 216.155 82.8481C216.164 82.826 216.177 82.8059 216.194 82.7891C216.21 82.7719 216.23 82.7582 216.252 82.7488C216.273 82.7395 216.297 82.7347 216.32 82.7347C216.344 82.7347 216.367 82.7395 216.389 82.7488C216.41 82.7582 216.43 82.7719 216.446 82.7891L217.158 83.5772C217.175 83.594 217.188 83.6141 217.197 83.6362C217.206 83.6583 217.21 83.6821 217.21 83.7061C217.21 83.7301 217.206 83.7539 217.197 83.776C217.188 83.7981 217.175 83.8182 217.158 83.835C217.142 83.8531 217.123 83.8674 217.102 83.8769C217.08 83.8865 217.057 83.891 217.034 83.8902ZM215.098 81.7948C215.05 81.7947 215.004 81.7749 214.97 81.7396L214.259 80.9442C214.242 80.927 214.229 80.9067 214.22 80.8842C214.211 80.8618 214.206 80.8377 214.206 80.8134C214.206 80.7891 214.211 80.7651 214.22 80.7426C214.229 80.7202 214.242 80.6998 214.259 80.6827C214.275 80.6654 214.295 80.6517 214.316 80.6424C214.338 80.633 214.361 80.6282 214.385 80.6282C214.408 80.6282 214.432 80.633 214.453 80.6424C214.475 80.6517 214.495 80.6654 214.511 80.6827L215.223 81.4708C215.239 81.4876 215.252 81.5076 215.261 81.5298C215.27 81.5519 215.275 81.5757 215.275 81.5997C215.275 81.6237 215.27 81.6474 215.261 81.6696C215.252 81.6917 215.239 81.7118 215.223 81.7286C215.189 81.7626 215.145 81.7823 215.098 81.7838V81.7948ZM213.166 79.6994C213.142 79.6996 213.118 79.6944 213.096 79.6842C213.074 79.674 213.054 79.6592 213.038 79.6405L212.327 78.8561C212.294 78.8205 212.277 78.7729 212.278 78.7239C212.279 78.6748 212.299 78.6283 212.334 78.5947C212.368 78.561 212.414 78.5428 212.462 78.5442C212.509 78.5456 212.554 78.5664 212.586 78.602L213.298 79.3864C213.315 79.4035 213.328 79.4239 213.337 79.4463C213.346 79.4688 213.351 79.4928 213.351 79.5171C213.351 79.5415 213.346 79.5655 213.337 79.588C213.328 79.6104 213.315 79.6308 213.298 79.6479C213.261 79.6784 213.214 79.6929 213.166 79.6884V79.6994ZM211.235 77.604C211.186 77.6025 211.14 77.5814 211.106 77.5451L210.395 76.7607C210.362 76.7256 210.344 76.6783 210.344 76.6292C210.345 76.5802 210.364 76.5334 210.398 76.4992C210.432 76.4651 210.478 76.4462 210.525 76.4469C210.573 76.4476 210.618 76.4678 210.651 76.5029L211.363 77.291C211.379 77.3081 211.392 77.3285 211.402 77.3509C211.411 77.3734 211.415 77.3974 211.415 77.4217C211.415 77.4461 211.411 77.4701 211.402 77.4926C211.392 77.515 211.379 77.5354 211.363 77.5525C211.345 77.5676 211.324 77.579 211.302 77.586C211.28 77.5929 211.257 77.5953 211.235 77.593V77.604ZM209.303 75.5049C209.278 75.5054 209.254 75.5007 209.231 75.4912C209.209 75.4817 209.188 75.4676 209.171 75.4497L208.46 74.6616C208.443 74.6448 208.43 74.6248 208.421 74.6026C208.412 74.5805 208.407 74.5567 208.407 74.5327C208.407 74.5087 208.412 74.485 208.421 74.4628C208.43 74.4407 208.443 74.4207 208.46 74.4039C208.476 74.3866 208.496 74.3729 208.517 74.3635C208.539 74.3542 208.562 74.3494 208.586 74.3494C208.609 74.3494 208.633 74.3542 208.654 74.3635C208.676 74.3729 208.696 74.3866 208.712 74.4039L209.424 75.1919C209.44 75.2087 209.453 75.2288 209.462 75.2509C209.471 75.273 209.476 75.2968 209.476 75.3208C209.476 75.3448 209.471 75.3686 209.462 75.3907C209.453 75.4129 209.44 75.4329 209.424 75.4497C209.407 75.465 209.388 75.4767 209.367 75.4843C209.347 75.4919 209.325 75.4951 209.303 75.4939V75.5049ZM207.367 73.4095C207.343 73.4097 207.319 73.4045 207.297 73.3943C207.275 73.3842 207.255 73.3693 207.239 73.3506L206.528 72.5662C206.495 72.5306 206.478 72.483 206.479 72.434C206.48 72.3849 206.5 72.3385 206.535 72.3048C206.569 72.2711 206.615 72.2529 206.663 72.2543C206.71 72.2557 206.755 72.2765 206.787 72.3121L207.499 73.0965C207.516 73.1136 207.529 73.134 207.538 73.1564C207.547 73.1789 207.552 73.2029 207.552 73.2273C207.552 73.2516 207.547 73.2756 207.538 73.2981C207.529 73.3205 207.516 73.3409 207.499 73.358C207.462 73.3885 207.415 73.403 207.367 73.3985V73.4095ZM205.435 71.3141C205.411 71.3143 205.387 71.3091 205.365 71.2989C205.343 71.2888 205.324 71.2739 205.307 71.2552L204.596 70.4708C204.579 70.4537 204.566 70.4333 204.557 70.4109C204.548 70.3885 204.543 70.3644 204.543 70.3401C204.543 70.3158 204.548 70.2917 204.557 70.2693C204.566 70.2468 204.579 70.2265 204.596 70.2094C204.612 70.1922 204.631 70.1786 204.653 70.1693C204.674 70.16 204.697 70.1552 204.72 70.1552C204.744 70.1552 204.767 70.16 204.788 70.1693C204.809 70.1786 204.829 70.1922 204.845 70.2094L205.556 70.9938C205.573 71.0109 205.586 71.0312 205.595 71.0537C205.604 71.0761 205.609 71.1002 205.609 71.1245C205.609 71.1488 205.604 71.1729 205.595 71.1953C205.586 71.2177 205.573 71.2381 205.556 71.2552C205.524 71.2867 205.48 71.3038 205.435 71.3031V71.3141Z" fill="#5A6376"/>
<path d="M234.249 143.431C234.225 143.431 234.201 143.427 234.179 143.417C234.157 143.408 234.137 143.393 234.121 143.375L233.37 142.562C233.338 142.527 233.319 142.48 233.319 142.431C233.319 142.382 233.338 142.335 233.37 142.3C233.387 142.283 233.407 142.269 233.428 142.26C233.45 142.25 233.473 142.246 233.497 142.246C233.52 142.246 233.543 142.25 233.565 142.26C233.587 142.269 233.606 142.283 233.623 142.3L234.374 143.114C234.39 143.131 234.403 143.151 234.412 143.173C234.421 143.195 234.426 143.219 234.426 143.243C234.426 143.267 234.421 143.291 234.412 143.313C234.403 143.335 234.39 143.355 234.374 143.372C234.341 143.407 234.296 143.429 234.249 143.431ZM232.25 141.265C232.226 141.265 232.202 141.26 232.18 141.25C232.157 141.24 232.138 141.225 232.122 141.206L231.371 140.396C231.338 140.361 231.321 140.313 231.322 140.264C231.324 140.215 231.344 140.168 231.378 140.135C231.413 140.101 231.458 140.083 231.506 140.084C231.553 140.086 231.598 140.106 231.631 140.142L232.378 140.952C232.394 140.969 232.408 140.99 232.417 141.012C232.426 141.035 232.43 141.059 232.43 141.083C232.43 141.107 232.426 141.131 232.417 141.154C232.408 141.176 232.394 141.197 232.378 141.214C232.343 141.247 232.297 141.265 232.25 141.265ZM230.268 139.1C230.244 139.1 230.22 139.095 230.198 139.085C230.176 139.075 230.156 139.06 230.14 139.041L229.393 138.231C229.376 138.214 229.363 138.193 229.354 138.171C229.345 138.148 229.34 138.124 229.34 138.1C229.34 138.076 229.345 138.052 229.354 138.029C229.363 138.007 229.376 137.986 229.393 137.969C229.409 137.952 229.429 137.938 229.451 137.929C229.472 137.92 229.496 137.915 229.519 137.915C229.543 137.915 229.566 137.92 229.588 137.929C229.609 137.938 229.629 137.952 229.645 137.969L230.393 138.78C230.409 138.797 230.423 138.817 230.432 138.839C230.441 138.862 230.445 138.886 230.445 138.91C230.445 138.935 230.441 138.959 230.432 138.981C230.423 139.004 230.409 139.024 230.393 139.041C230.36 139.076 230.315 139.097 230.268 139.1ZM228.254 136.92C228.23 136.919 228.207 136.914 228.185 136.904C228.163 136.894 228.143 136.879 228.126 136.861L227.376 136.047C227.347 136.011 227.333 135.965 227.335 135.919C227.338 135.873 227.357 135.829 227.39 135.797C227.422 135.765 227.465 135.746 227.51 135.746C227.555 135.745 227.598 135.762 227.632 135.793L228.383 136.607C228.399 136.624 228.412 136.644 228.421 136.667C228.43 136.689 228.435 136.713 228.435 136.738C228.435 136.762 228.43 136.786 228.421 136.808C228.412 136.831 228.399 136.851 228.383 136.868C228.348 136.902 228.302 136.921 228.254 136.92ZM226.255 134.751C226.207 134.751 226.161 134.731 226.127 134.696L225.376 133.882C225.36 133.865 225.347 133.845 225.338 133.823C225.329 133.801 225.324 133.777 225.324 133.753C225.324 133.729 225.329 133.705 225.338 133.683C225.347 133.661 225.36 133.641 225.376 133.624C225.393 133.607 225.412 133.593 225.434 133.584C225.456 133.574 225.479 133.569 225.503 133.569C225.526 133.569 225.549 133.574 225.571 133.584C225.593 133.593 225.612 133.607 225.629 133.624L226.376 134.438C226.393 134.455 226.406 134.475 226.415 134.498C226.424 134.52 226.429 134.544 226.429 134.568C226.429 134.593 226.424 134.617 226.415 134.639C226.406 134.662 226.393 134.682 226.376 134.699C226.345 134.736 226.302 134.76 226.255 134.765V134.751ZM224.256 132.585C224.208 132.585 224.161 132.565 224.128 132.53L223.38 131.716C223.362 131.699 223.348 131.679 223.337 131.656C223.327 131.633 223.322 131.608 223.322 131.582C223.321 131.557 223.326 131.532 223.335 131.508C223.345 131.485 223.359 131.464 223.376 131.446C223.394 131.429 223.415 131.415 223.438 131.407C223.461 131.398 223.485 131.394 223.51 131.396C223.534 131.397 223.558 131.404 223.58 131.415C223.602 131.427 223.621 131.443 223.637 131.462L224.387 132.276C224.404 132.293 224.417 132.313 224.426 132.335C224.435 132.357 224.44 132.381 224.44 132.405C224.44 132.429 224.435 132.453 224.426 132.475C224.417 132.497 224.404 132.517 224.387 132.534C224.372 132.554 224.352 132.571 224.329 132.583C224.306 132.594 224.281 132.6 224.256 132.6V132.585ZM222.26 130.42C222.236 130.42 222.212 130.416 222.19 130.406C222.168 130.397 222.148 130.383 222.132 130.365L221.374 129.555C221.357 129.537 221.344 129.517 221.335 129.495C221.326 129.472 221.321 129.448 221.321 129.424C221.321 129.4 221.326 129.375 221.335 129.353C221.344 129.331 221.357 129.31 221.374 129.293C221.39 129.276 221.409 129.262 221.431 129.253C221.452 129.244 221.475 129.239 221.498 129.239C221.522 129.239 221.545 129.244 221.566 129.253C221.587 129.262 221.607 129.276 221.623 129.293L222.374 130.103C222.39 130.12 222.404 130.141 222.413 130.163C222.422 130.186 222.426 130.21 222.426 130.234C222.426 130.258 222.422 130.282 222.413 130.305C222.404 130.327 222.39 130.348 222.374 130.365C222.346 130.403 222.305 130.428 222.26 130.435V130.42ZM220.26 128.255C220.236 128.255 220.212 128.25 220.19 128.239C220.168 128.229 220.148 128.214 220.132 128.196L219.382 127.386C219.349 127.35 219.331 127.302 219.333 127.253C219.334 127.204 219.354 127.158 219.389 127.124C219.423 127.09 219.469 127.072 219.516 127.074C219.564 127.075 219.609 127.096 219.641 127.131L220.388 127.942C220.405 127.959 220.418 127.979 220.427 128.002C220.436 128.024 220.441 128.048 220.441 128.072C220.441 128.097 220.436 128.121 220.427 128.143C220.418 128.166 220.405 128.186 220.388 128.203C220.372 128.222 220.353 128.238 220.331 128.25C220.309 128.261 220.285 128.268 220.26 128.269V128.255ZM218.261 126.089C218.237 126.089 218.213 126.084 218.191 126.074C218.169 126.064 218.149 126.049 218.133 126.03L217.386 125.22C217.368 125.203 217.353 125.183 217.343 125.16C217.333 125.136 217.327 125.112 217.327 125.086C217.326 125.061 217.331 125.036 217.341 125.012C217.35 124.989 217.364 124.968 217.382 124.95C217.399 124.933 217.42 124.919 217.443 124.91C217.466 124.902 217.491 124.898 217.515 124.899C217.54 124.901 217.563 124.908 217.585 124.919C217.607 124.931 217.626 124.947 217.642 124.966L218.393 125.776C218.409 125.793 218.422 125.814 218.431 125.836C218.441 125.859 218.445 125.883 218.445 125.907C218.445 125.931 218.441 125.955 218.431 125.978C218.422 126 218.409 126.021 218.393 126.038C218.376 126.057 218.356 126.074 218.333 126.085C218.311 126.096 218.286 126.103 218.261 126.104V126.089ZM216.265 123.924C216.217 123.922 216.171 123.901 216.137 123.865L215.386 123.051C215.358 123.015 215.343 122.97 215.346 122.923C215.349 122.877 215.368 122.833 215.4 122.801C215.433 122.769 215.476 122.751 215.521 122.75C215.566 122.749 215.609 122.766 215.642 122.797L216.393 123.626C216.41 123.643 216.423 123.663 216.432 123.686C216.441 123.708 216.446 123.732 216.446 123.756C216.446 123.781 216.441 123.805 216.432 123.827C216.423 123.85 216.41 123.87 216.393 123.887C216.376 123.904 216.356 123.918 216.334 123.926C216.312 123.935 216.289 123.939 216.265 123.939V123.924ZM214.259 121.77C214.21 121.769 214.164 121.75 214.13 121.714L213.38 120.9C213.363 120.884 213.35 120.864 213.341 120.841C213.332 120.819 213.327 120.796 213.327 120.772C213.327 120.748 213.332 120.724 213.341 120.702C213.35 120.68 213.363 120.659 213.38 120.643C213.396 120.625 213.416 120.612 213.438 120.602C213.459 120.593 213.483 120.588 213.506 120.588C213.53 120.588 213.553 120.593 213.575 120.602C213.596 120.612 213.616 120.625 213.632 120.643L214.38 121.457C214.405 121.482 214.422 121.515 214.429 121.55C214.435 121.586 214.432 121.623 214.418 121.657C214.404 121.69 214.381 121.718 214.351 121.738C214.321 121.757 214.287 121.767 214.251 121.766L214.259 121.77ZM212.27 119.612C212.245 119.612 212.221 119.607 212.199 119.598C212.176 119.588 212.155 119.574 212.138 119.556L211.391 118.742C211.373 118.726 211.358 118.705 211.348 118.682C211.338 118.659 211.333 118.634 211.332 118.608C211.332 118.583 211.336 118.558 211.346 118.535C211.355 118.511 211.369 118.49 211.387 118.473C211.405 118.455 211.426 118.442 211.449 118.433C211.472 118.424 211.496 118.42 211.52 118.422C211.545 118.423 211.569 118.43 211.591 118.441C211.612 118.453 211.632 118.469 211.647 118.488L212.398 119.302C212.414 119.319 212.428 119.339 212.437 119.361C212.446 119.383 212.45 119.407 212.45 119.431C212.45 119.455 212.446 119.479 212.437 119.501C212.428 119.523 212.414 119.543 212.398 119.56C212.381 119.577 212.361 119.591 212.339 119.6C212.317 119.609 212.293 119.613 212.27 119.612ZM210.27 117.446C210.222 117.446 210.176 117.426 210.142 117.391L209.392 116.577C209.375 116.56 209.362 116.54 209.353 116.517C209.344 116.495 209.339 116.471 209.339 116.446C209.339 116.422 209.344 116.398 209.353 116.376C209.362 116.353 209.375 116.333 209.392 116.316C209.408 116.298 209.427 116.285 209.449 116.276C209.47 116.266 209.493 116.261 209.516 116.261C209.539 116.261 209.562 116.266 209.584 116.276C209.605 116.285 209.624 116.298 209.641 116.316L210.391 117.126C210.408 117.143 210.421 117.163 210.43 117.186C210.439 117.208 210.444 117.232 210.444 117.257C210.444 117.281 210.439 117.305 210.43 117.327C210.421 117.35 210.408 117.37 210.391 117.387C210.359 117.42 210.316 117.439 210.27 117.439V117.446ZM208.271 115.281C208.247 115.281 208.223 115.276 208.201 115.266C208.179 115.255 208.159 115.241 208.143 115.222L207.392 114.412C207.376 114.394 207.364 114.373 207.355 114.351C207.347 114.328 207.343 114.304 207.343 114.279C207.344 114.255 207.349 114.231 207.359 114.209C207.369 114.187 207.382 114.167 207.399 114.15C207.416 114.134 207.436 114.121 207.458 114.112C207.48 114.103 207.504 114.099 207.527 114.1C207.551 114.1 207.574 114.106 207.595 114.116C207.617 114.126 207.636 114.14 207.652 114.158L208.399 114.968C208.416 114.985 208.429 115.005 208.438 115.028C208.447 115.05 208.452 115.074 208.452 115.099C208.452 115.123 208.447 115.147 208.438 115.169C208.429 115.192 208.416 115.212 208.399 115.229C208.363 115.26 208.318 115.276 208.271 115.273V115.281ZM206.275 113.115C206.25 113.116 206.226 113.111 206.203 113.101C206.18 113.09 206.16 113.075 206.143 113.057L205.396 112.246C205.378 112.229 205.364 112.209 205.353 112.186C205.343 112.163 205.338 112.138 205.337 112.112C205.337 112.087 205.342 112.062 205.351 112.039C205.361 112.015 205.375 111.994 205.392 111.977C205.41 111.959 205.431 111.945 205.454 111.937C205.477 111.928 205.501 111.924 205.526 111.926C205.55 111.927 205.574 111.934 205.596 111.945C205.618 111.957 205.637 111.973 205.653 111.992L206.403 112.802C206.42 112.82 206.433 112.84 206.442 112.862C206.451 112.885 206.456 112.909 206.456 112.933C206.456 112.957 206.451 112.982 206.442 113.004C206.433 113.026 206.42 113.047 206.403 113.064C206.368 113.095 206.322 113.111 206.275 113.108V113.115ZM204.276 110.95C204.227 110.949 204.181 110.927 204.148 110.891L203.913 110.637C203.731 110.443 203.571 110.228 203.436 109.996C203.423 109.976 203.415 109.954 203.41 109.93C203.406 109.906 203.407 109.882 203.412 109.858C203.418 109.835 203.428 109.813 203.441 109.793C203.455 109.774 203.473 109.758 203.493 109.746C203.513 109.732 203.535 109.723 203.558 109.719C203.581 109.715 203.605 109.716 203.628 109.721C203.651 109.727 203.672 109.737 203.691 109.751C203.711 109.766 203.726 109.784 203.738 109.805C203.863 110.013 204.009 110.207 204.173 110.383L204.404 110.637C204.42 110.654 204.434 110.675 204.443 110.697C204.452 110.719 204.456 110.743 204.456 110.768C204.456 110.792 204.452 110.816 204.443 110.839C204.434 110.861 204.42 110.881 204.404 110.899C204.386 110.914 204.366 110.926 204.344 110.934C204.322 110.942 204.299 110.945 204.276 110.943V110.95ZM203.134 108.302C203.087 108.302 203.041 108.283 203.008 108.248C202.975 108.214 202.956 108.167 202.956 108.118V107.013C202.956 106.965 202.975 106.918 203.008 106.883C203.041 106.849 203.087 106.829 203.134 106.829C203.181 106.829 203.226 106.849 203.259 106.883C203.293 106.918 203.312 106.965 203.312 107.013V108.118C203.31 108.166 203.29 108.211 203.257 108.244C203.224 108.277 203.18 108.295 203.134 108.295V108.302ZM203.134 105.308C203.087 105.307 203.042 105.288 203.009 105.253C202.976 105.219 202.957 105.173 202.956 105.124V104.001C202.956 103.952 202.975 103.905 203.008 103.871C203.041 103.836 203.087 103.817 203.134 103.817C203.181 103.817 203.226 103.836 203.259 103.871C203.293 103.905 203.312 103.952 203.312 104.001V105.124C203.31 105.172 203.29 105.217 203.257 105.25C203.224 105.283 203.18 105.301 203.134 105.301V105.308ZM203.134 102.311C203.087 102.311 203.041 102.291 203.008 102.257C202.975 102.222 202.956 102.175 202.956 102.127V101.003C202.957 100.955 202.976 100.909 203.009 100.874C203.042 100.84 203.087 100.82 203.134 100.819C203.181 100.819 203.226 100.839 203.259 100.873C203.293 100.908 203.312 100.955 203.312 101.003V102.127C203.31 102.174 203.29 102.219 203.257 102.252C203.224 102.285 203.18 102.303 203.134 102.303V102.311ZM203.134 99.3167C203.087 99.3167 203.041 99.2973 203.008 99.2628C202.975 99.2283 202.956 99.1814 202.956 99.1326V98.0094C202.957 97.9608 202.976 97.9146 203.009 97.8802C203.042 97.8459 203.087 97.8262 203.134 97.8253C203.181 97.8253 203.226 97.8447 203.259 97.8792C203.293 97.9137 203.312 97.9606 203.312 98.0094V99.1326C203.31 99.1801 203.29 99.2251 203.257 99.258C203.224 99.291 203.18 99.3094 203.134 99.3093V99.3167ZM203.134 96.3228C203.087 96.3228 203.041 96.3034 203.008 96.2688C202.975 96.2343 202.956 96.1875 202.956 96.1386V95.0154C202.956 94.9666 202.975 94.9198 203.008 94.8852C203.041 94.8507 203.087 94.8313 203.134 94.8313C203.181 94.8313 203.226 94.8507 203.259 94.8852C203.293 94.9198 203.312 94.9666 203.312 95.0154V96.1386C203.31 96.1862 203.29 96.2311 203.257 96.2641C203.224 96.297 203.18 96.3154 203.134 96.3154V96.3228ZM203.134 93.3288C203.087 93.3279 203.042 93.3081 203.009 93.2738C202.976 93.2395 202.957 93.1932 202.956 93.1447V92.0215C202.956 91.9726 202.975 91.9258 203.008 91.8913C203.041 91.8567 203.087 91.8373 203.134 91.8373C203.181 91.8373 203.226 91.8567 203.259 91.8913C203.293 91.9258 203.312 91.9726 203.312 92.0215V93.1447C203.31 93.1922 203.29 93.2372 203.257 93.2701C203.224 93.3031 203.18 93.3215 203.134 93.3214V93.3288ZM203.134 90.3311C203.087 90.3311 203.041 90.3118 203.008 90.2772C202.975 90.2427 202.956 90.1959 202.956 90.147V89.0238C202.957 88.9753 202.976 88.929 203.009 88.8947C203.042 88.8603 203.087 88.8406 203.134 88.8397C203.181 88.8397 203.226 88.8591 203.259 88.8936C203.293 88.9282 203.312 88.975 203.312 89.0238V90.1507C203.309 90.1976 203.289 90.2416 203.256 90.2738C203.223 90.306 203.179 90.3239 203.134 90.3238V90.3311ZM203.134 87.3372C203.087 87.3372 203.041 87.3178 203.008 87.2833C202.975 87.2487 202.956 87.2019 202.956 87.1531V86.0299C202.957 85.9813 202.976 85.935 203.009 85.9007C203.042 85.8664 203.087 85.8467 203.134 85.8457C203.181 85.8457 203.226 85.8651 203.259 85.8997C203.293 85.9342 203.312 85.981 203.312 86.0299V87.1531C203.31 87.2006 203.29 87.2456 203.257 87.2785C203.224 87.3115 203.18 87.3299 203.134 87.3298V87.3372ZM203.134 84.3432C203.087 84.3432 203.041 84.3238 203.008 84.2893C202.975 84.2548 202.956 84.2079 202.956 84.1591V83.0359C202.956 82.9871 202.975 82.9402 203.008 82.9057C203.041 82.8712 203.087 82.8518 203.134 82.8518C203.181 82.8518 203.226 82.8712 203.259 82.9057C203.293 82.9402 203.312 82.9871 203.312 83.0359V84.1591C203.31 84.2066 203.29 84.2516 203.257 84.2846C203.224 84.3175 203.18 84.3359 203.134 84.3359V84.3432ZM203.134 81.3493C203.087 81.3483 203.042 81.3286 203.009 81.2943C202.976 81.26 202.957 81.2137 202.956 81.1651V80.0419C202.956 79.9931 202.975 79.9463 203.008 79.9117C203.041 79.8772 203.087 79.8578 203.134 79.8578C203.181 79.8578 203.226 79.8772 203.259 79.9117C203.293 79.9463 203.312 79.9931 203.312 80.0419V81.1651C203.31 81.2127 203.29 81.2577 203.257 81.2906C203.224 81.3236 203.18 81.3419 203.134 81.3419V81.3493ZM203.134 78.3516C203.087 78.3516 203.041 78.3322 203.008 78.2977C202.975 78.2632 202.956 78.2163 202.956 78.1675V77.0443C202.957 76.9958 202.976 76.9495 203.009 76.9151C203.042 76.8808 203.087 76.8611 203.134 76.8602C203.181 76.8602 203.226 76.8796 203.259 76.9141C203.293 76.9486 203.312 76.9955 203.312 77.0443V78.1675C203.31 78.215 203.29 78.26 203.257 78.293C203.224 78.3259 203.18 78.3443 203.134 78.3443V78.3516ZM203.134 75.3577C203.087 75.3577 203.041 75.3383 203.008 75.3037C202.975 75.2692 202.956 75.2224 202.956 75.1735V74.0503C202.957 74.0018 202.976 73.9555 203.009 73.9212C203.042 73.8869 203.087 73.8672 203.134 73.8662C203.181 73.8662 203.226 73.8856 203.259 73.9201C203.293 73.9547 203.312 74.0015 203.312 74.0503V75.1735C203.31 75.2211 203.29 75.2661 203.257 75.299C203.224 75.332 203.18 75.3503 203.134 75.3503V75.3577ZM203.134 72.3637C203.087 72.3637 203.041 72.3443 203.008 72.3098C202.975 72.2753 202.956 72.2284 202.956 72.1796V71.0564C202.956 71.0075 202.975 70.9607 203.008 70.9262C203.041 70.8917 203.087 70.8723 203.134 70.8723C203.181 70.8723 203.226 70.8917 203.259 70.9262C203.293 70.9607 203.312 71.0075 203.312 71.0564V72.1796C203.31 72.2271 203.29 72.2721 203.257 72.305C203.224 72.338 203.18 72.3564 203.134 72.3563V72.3637Z" fill="#5A6376"/>
<path d="M240.432 101.847L238.017 103.294C238.229 103.813 238.349 104.366 238.372 104.929V149.592C238.372 150.059 238.255 150.358 238.063 150.476L240.439 149.054C240.635 148.94 240.753 148.638 240.753 148.17V103.508C240.747 102.938 240.638 102.375 240.432 101.847Z" fill="#263238"/>
<path d="M231.979 120.381C231.941 119.071 231.486 117.81 230.684 116.794C229.973 116.021 229.389 116.367 229.389 117.571C229.427 118.881 229.882 120.141 230.684 121.155C231.399 121.932 231.979 121.586 231.979 120.381Z" fill="#464F60"/>
<path d="M265.087 104.126L271.082 107.709L265.087 111.292V104.126Z" fill="#37474F"/>
<path d="M269.637 108.564L270.986 107.757C271.172 107.692 271.333 107.568 271.447 107.403C271.562 107.238 271.623 107.04 271.623 106.837C271.623 106.634 271.562 106.435 271.447 106.27C271.333 106.105 271.172 105.981 270.986 105.916L265.087 102.388V104.145L269.203 106.605C269.247 106.631 269.283 106.669 269.308 106.715C269.333 106.76 269.346 106.812 269.346 106.864C269.346 106.917 269.333 106.968 269.308 107.014C269.283 107.059 269.247 107.097 269.203 107.124L268.193 107.728L269.637 108.564Z" fill="#5A6376"/>
<path d="M261.156 111.915C259.455 112.931 258.075 115.303 258.075 117.21C258.075 118.131 258.399 118.776 258.922 119.081C259.445 119.387 260.384 119.954 260.384 119.954L269.541 113.811C269.717 113.732 269.869 113.605 269.981 113.444C270.093 113.282 270.161 113.092 270.178 112.894V105.986C270.162 106.185 270.094 106.375 269.982 106.537C269.87 106.699 269.718 106.827 269.541 106.907L261.156 111.915Z" fill="#5A6376"/>
<path d="M262.604 112.777C260.9 113.793 259.523 116.165 259.523 118.072C259.523 119.98 260.9 120.702 262.604 119.685L270.986 114.673C271.161 114.592 271.313 114.465 271.425 114.304C271.538 114.143 271.607 113.954 271.626 113.756V106.848C271.61 107.047 271.541 107.238 271.429 107.4C271.316 107.562 271.163 107.689 270.986 107.768L262.604 112.777Z" fill="#37474F"/>
<path d="M263.123 113.811C264.102 113.226 264.902 113.701 264.902 114.868C264.866 115.505 264.687 116.125 264.378 116.677C264.069 117.229 263.639 117.698 263.123 118.046C262.145 118.632 261.344 118.157 261.344 116.986C261.379 116.349 261.557 115.73 261.867 115.178C262.176 114.627 262.606 114.158 263.123 113.811Z" fill="#464F60"/>
<path d="M239.518 100.337L204.173 62.0119C203.843 61.6638 203.594 61.2434 203.443 60.7819L202.241 63.9195L237.127 101.758C237.513 102.209 237.814 102.73 238.017 103.294L240.432 101.847C240.226 101.286 239.915 100.773 239.518 100.337Z" fill="#5A6376"/>
</g>
<defs>
<clipPath id="clip0_3_974">
<rect width="289" height="141" rx="5" fill="white"/>
</clipPath>
<clipPath id="clip1_3_974">
<rect width="289.843" height="289.221" fill="white" transform="translate(0 -24.7703)"/>
</clipPath>
</defs>
</svg>
