<svg width="78" height="92" viewBox="0 0 78 92" fill="none" xmlns="http://www.w3.org/2000/svg">
<path d="M66.6206 85.2199C66.7925 85.1006 66.9288 84.9369 67.0153 84.7464C67.1017 84.5559 67.1349 84.3455 67.1115 84.1376V37.2383C67.0913 36.6553 66.9223 36.0871 66.6206 35.5878L69.5274 33.9102C69.8286 34.4083 69.9976 34.9751 70.0183 35.5568V82.46C70.0417 82.6679 70.0085 82.8783 69.9221 83.0688C69.8356 83.2593 69.6993 83.423 69.5274 83.5423L66.6206 85.2199Z" fill="#263238"/>
<path d="M66.6208 35.5883C66.3395 35.078 65.9323 34.6482 65.4379 34.3398L12.3617 3.69468C10.514 2.62782 7.51445 2.62782 5.66678 3.69468L4.50715 4.36339C4.03322 4.60763 3.63359 4.97468 3.35004 5.42619C3.06649 5.87769 2.90943 6.39707 2.89526 6.93004V57.6986C2.90996 57.1653 3.06721 56.6456 3.35066 56.1935C3.63412 55.7415 4.03344 55.3736 4.50715 55.1281L5.66678 54.4594C7.51445 53.3925 10.514 53.3925 12.3617 54.4594L65.4302 85.1045C65.5905 85.2451 65.7908 85.332 66.0031 85.3529C66.2153 85.3738 66.4287 85.3277 66.6133 85.2211C66.798 85.1144 66.9446 84.9527 67.0326 84.7584C67.1206 84.5642 67.1456 84.3473 67.1039 84.1382V37.2389C67.0861 36.6565 66.9197 36.0884 66.6208 35.5883Z" fill="#37474F"/>
<path d="M3.0421 7.79948C2.62077 6.52002 3.1426 5.15165 4.51096 4.36311L5.67059 3.69439C7.51826 2.62753 10.5178 2.62753 12.3655 3.69439L65.4302 34.3395C65.9242 34.6483 66.3313 35.078 66.613 35.5881L69.5198 33.9105C69.2367 33.4004 68.83 32.9698 68.337 32.6581L13.8112 1.18572C11.0783 -0.39524 6.95391 -0.39524 4.21719 1.18572L3.05756 1.85058C2.26233 2.2921 1.57863 2.90965 1.05873 3.65599C0.538833 4.40234 0.196525 5.25771 0.057985 6.15667C0.0200675 6.41263 0.000686381 6.671 0 6.92975C0.0196354 8.49055 0.641441 9.98343 1.73558 11.0967L3.83451 9.0944C3.47668 8.72908 3.20584 8.28778 3.0421 7.80334" fill="#5A6376"/>
<path d="M63.2423 43.2652V36.837L9.93417 6.06816C9.41775 5.79759 8.84344 5.65625 8.26044 5.65625C7.67744 5.65625 7.10312 5.79759 6.58671 6.06816L6.00689 6.40059C5.77029 6.52296 5.57087 6.7066 5.42944 6.93233C5.28802 7.15807 5.20978 7.41762 5.20288 7.68391V18.8048L63.2423 43.2652Z" fill="#00A656"/>
<path opacity="0.2" d="M63.2423 43.2652V36.837L9.93417 6.06816C9.41775 5.79759 8.84344 5.65625 8.26044 5.65625C7.67744 5.65625 7.10312 5.79759 6.58671 6.06816L6.00689 6.40059C5.77029 6.52296 5.57087 6.7066 5.42944 6.93233C5.28802 7.15807 5.20978 7.41762 5.20288 7.68391V18.8048L63.2423 43.2652Z" fill="black"/>
<path d="M10.6571 4.81198C9.91724 4.42361 9.09416 4.2207 8.25858 4.2207C7.423 4.2207 6.59992 4.42361 5.86008 4.81198L5.28413 5.14441C4.8871 5.36345 4.54529 5.67019 4.28472 6.04129C4.02415 6.41238 3.85169 6.83804 3.78048 7.28586C3.76223 7.41389 3.75319 7.54307 3.75342 7.6724V9.41185L5.20296 10.9271V7.70333C5.20945 7.43694 5.28752 7.17722 5.42899 6.95141C5.57046 6.72561 5.7701 6.54205 6.00697 6.42L6.58678 6.08758C7.10547 5.82442 7.67889 5.68727 8.26052 5.68727C8.84214 5.68727 9.41556 5.82442 9.93424 6.08758L63.2424 36.8564L64.6958 36.0176L10.6571 4.81198Z" fill="#00A656"/>
<path opacity="0.3" d="M10.6571 4.81198C9.91724 4.42361 9.09416 4.2207 8.25858 4.2207C7.423 4.2207 6.59992 4.42361 5.86008 4.81198L5.28413 5.14441C4.8871 5.36345 4.54529 5.67019 4.28472 6.04129C4.02415 6.41238 3.85169 6.83804 3.78048 7.28586C3.76223 7.41389 3.75319 7.54307 3.75342 7.6724V9.41185L5.20296 10.9271V7.70333C5.20945 7.43694 5.28752 7.17722 5.42899 6.95141C5.57046 6.72561 5.7701 6.54205 6.00697 6.42L6.58678 6.08758C7.10547 5.82442 7.67889 5.68727 8.26052 5.68727C8.84214 5.68727 9.41556 5.82442 9.93424 6.08758L63.2424 36.8564L64.6958 36.0176L10.6571 4.81198Z" fill="black"/>
<path d="M63.2424 36.8368L64.6958 35.998V43.9995L63.2424 43.1375V36.8368Z" fill="#00A656"/>
<path opacity="0.4" d="M63.2424 36.8368L64.6958 35.998V43.9995L63.2424 43.1375V36.8368Z" fill="black"/>
<path d="M65.1055 79.3445V43.2336L11.9442 12.5112C11.3981 12.1967 10.7789 12.0312 10.1487 12.0312C9.51852 12.0312 8.89938 12.1967 8.35323 12.5112L7.00806 13.2842V47.733L63.4433 80.3108C63.6127 80.4055 63.8038 80.4544 63.9979 80.4528C64.1919 80.4511 64.3821 80.399 64.5499 80.3015C64.7176 80.2039 64.8571 80.0644 64.9545 79.8966C65.0519 79.7288 65.104 79.5385 65.1055 79.3445Z" fill="#263238"/>
<path d="M59.9373 77.9951L60.8495 77.4694C60.9999 77.3699 61.1251 77.2367 61.215 77.0804C61.3049 76.924 61.3571 76.7489 61.3675 76.5688V39.4607C61.3577 39.2799 61.3058 39.104 61.2158 38.9469C61.1259 38.7899 61.0004 38.656 60.8495 38.5562L12.7288 10.7637C12.5674 10.6828 12.3894 10.6406 12.2089 10.6406C12.0283 10.6406 11.8503 10.6828 11.689 10.7637L10.7767 11.2894C10.6256 11.3885 10.4997 11.5215 10.4091 11.6779C10.3185 11.8343 10.2657 12.0096 10.2549 12.19V49.2982C10.2652 49.4782 10.3174 49.6534 10.4074 49.8098C10.4973 49.9661 10.6224 50.0993 10.7728 50.1988L58.8975 77.9951C59.0588 78.0761 59.2369 78.1182 59.4174 78.1182C59.5979 78.1182 59.7759 78.0761 59.9373 77.9951Z" fill="#00A656"/>
<path d="M58.8975 39.678L10.7767 11.8894C10.4907 11.7232 10.2549 11.8585 10.2549 12.1909V49.2991C10.2652 49.4791 10.3174 49.6543 10.4074 49.8107C10.4973 49.967 10.6224 50.1002 10.7728 50.1997L58.8975 77.9961C59.1835 78.1623 59.4154 78.027 59.4154 77.6984V40.5903C59.4069 40.4082 59.3555 40.2307 59.2655 40.0722C59.1755 39.9137 59.0494 39.7787 58.8975 39.678Z" fill="#00A656"/>
<path d="M58.8975 39.678L10.7767 11.8894C10.4907 11.7232 10.2549 11.8585 10.2549 12.1909V49.2991C10.2652 49.4791 10.3174 49.6543 10.4074 49.8107C10.4973 49.967 10.6224 50.1002 10.7728 50.1997L58.8975 77.9961C59.1835 78.1623 59.4154 78.027 59.4154 77.6984V40.5903C59.4069 40.4082 59.3555 40.2307 59.2655 40.0722C59.1755 39.9137 59.0494 39.7787 58.8975 39.678Z" fill="#00A656"/>
<path d="M59.2454 40.0643L61.1781 38.9395C61.2748 39.0924 61.3282 39.2688 61.3327 39.4497V76.5578C61.3234 76.7382 61.272 76.9139 61.1828 77.071C61.0935 77.228 60.9688 77.362 60.8186 77.4623L59.9063 77.988C59.7617 78.0609 59.6034 78.1027 59.4416 78.1107C59.2798 78.1187 59.1182 78.0927 58.967 78.0344C59.2067 78.1117 59.3845 77.9726 59.3845 77.6827V40.5745C59.3845 40.3951 59.3365 40.2189 59.2454 40.0643Z" fill="#00A656"/>
<path d="M59.4155 44.8143L61.3676 43.6895V53.3917L59.4155 54.5049V44.8143Z" fill="#00A656"/>
<path opacity="0.2" d="M59.4155 44.8143L61.3676 43.6895V53.3917L59.4155 54.5049V44.8143Z" fill="black"/>
<path opacity="0.2" d="M10.2549 16.4238L59.4154 44.8154V54.5061L10.2549 26.1145V16.4238Z" fill="black"/>
<path d="M56.381 66.0239V72.3671C56.381 72.8425 56.0485 73.0358 55.6349 72.8L48.9748 69.0041C48.7576 68.8628 48.5769 68.6722 48.4473 68.4479C48.3176 68.2235 48.2428 67.9718 48.2288 67.7131V61.3699C48.2288 60.8945 48.565 60.7012 48.9748 60.9408C50.7915 61.9884 53.8182 63.6853 55.6349 64.7328C55.8521 64.8742 56.0328 65.0647 56.1624 65.2891C56.2921 65.5134 56.3669 65.7652 56.381 66.0239Z" fill="#5A6376"/>
<mask id="mask0_2271_61079" style="mask-type:luminance" maskUnits="userSpaceOnUse" x="48" y="60" width="9" height="13">
<path d="M56.381 66.0239V72.3671C56.381 72.8425 56.0485 73.0358 55.6349 72.8L48.9748 69.0041C48.7576 68.8628 48.5769 68.6722 48.4473 68.4479C48.3176 68.2235 48.2428 67.9718 48.2288 67.7131V61.3699C48.2288 60.8945 48.565 60.7012 48.9748 60.9408C50.7915 61.9884 53.8182 63.6853 55.6349 64.7328C55.8521 64.8742 56.0328 65.0647 56.1624 65.2891C56.2921 65.5134 56.3669 65.7652 56.381 66.0239Z" fill="white"/>
</mask>
<g mask="url(#mask0_2271_61079)">
<path d="M57.6913 68.5362L57.8614 68.2424L46.9184 61.9766L46.7483 62.2665L57.6913 68.5362Z" fill="white"/>
<path d="M53.7562 65.9688H53.4199V69.2003H53.7562V65.9688Z" fill="white"/>
<path d="M51.1896 64.5547H50.8533V67.7823H51.1896V64.5547Z" fill="white"/>
<path d="M57.6913 71.7745L57.8614 71.4807L46.9184 65.2148L46.7483 65.5048L57.6913 71.7745Z" fill="white"/>
</g>
<path d="M30.5406 33.9294C30.2626 33.3924 30.1231 32.7945 30.1347 32.19C30.1347 31.5367 30.2661 31.1115 30.5212 30.9183C30.7764 30.725 31.1668 30.7752 31.6809 31.0613C31.8828 31.1778 32.0719 31.3151 32.2452 31.471C32.4076 31.6138 32.5517 31.7761 32.6743 31.9542C32.7005 31.9873 32.7154 32.028 32.7168 32.0702C32.7174 32.0989 32.7093 32.1272 32.6936 32.1513L32.5429 32.4142C32.5235 32.4412 32.5042 32.4528 32.481 32.4412C32.4544 32.4187 32.431 32.3927 32.4114 32.3639C32.2361 32.1315 32.0167 31.9358 31.7659 31.788C31.4721 31.6179 31.2441 31.5986 31.0817 31.73C30.9836 31.8497 30.9112 31.9884 30.8693 32.1374C30.8274 32.2865 30.8168 32.4425 30.8382 32.5959C30.8266 32.9975 30.9142 33.3958 31.0933 33.7555C31.2477 34.0624 31.4881 34.3176 31.7852 34.4899C31.9832 34.6265 32.2217 34.6919 32.4617 34.6755C32.4857 34.6691 32.5111 34.6691 32.5351 34.6755C32.5631 34.7016 32.5832 34.7351 32.5931 34.7721L32.7593 35.2514C32.763 35.2771 32.763 35.3031 32.7593 35.3287C32.7593 35.3519 32.7593 35.3712 32.7052 35.3867C32.4849 35.4679 32.1409 35.3867 31.677 35.1084C31.1962 34.8284 30.8027 34.4202 30.5406 33.9294Z" fill="#5A6376"/>
<path d="M33.1614 35.816C33.1285 35.7501 33.1126 35.677 33.115 35.6034V32.2289C33.115 32.1439 33.1304 32.0898 33.1614 32.0666C33.1884 32.0395 33.2387 32.0472 33.3083 32.0898L34.3867 32.7121C34.7276 32.8926 35.0105 33.1659 35.2027 33.5004C35.3949 33.8348 35.4886 34.2168 35.4729 34.6023C35.4859 34.8149 35.4419 35.0271 35.3453 35.2169C35.306 35.2836 35.2492 35.3383 35.1811 35.375C35.113 35.4118 35.0361 35.4293 34.9588 35.4256L35.4072 36.995C35.4103 37.0233 35.4103 37.0518 35.4072 37.08C35.4072 37.1496 35.3763 37.1689 35.3183 37.1342L34.8428 36.8597C34.8086 36.8414 34.7783 36.8164 34.7539 36.7863C34.7283 36.7521 34.711 36.7124 34.7037 36.6703L34.3171 35.1898L33.8069 34.8961V36.0132C33.8069 36.0943 33.8069 36.1485 33.7644 36.1717C33.7219 36.1948 33.6871 36.1717 33.6175 36.1446L33.2967 35.9629C33.2385 35.9279 33.1915 35.8769 33.1614 35.816ZM34.2862 34.4863C34.4486 34.5791 34.5684 34.6062 34.6496 34.5598C34.7307 34.5134 34.7733 34.3974 34.7733 34.2003C34.7786 34.0273 34.74 33.8557 34.6612 33.7016C34.5832 33.5632 34.4681 33.4494 34.3287 33.3731L33.8185 33.0793V34.2196L34.2862 34.4863Z" fill="#5A6376"/>
<path d="M35.867 37.3821C35.8373 37.3152 35.8228 37.2426 35.8245 37.1695V33.7911C35.8179 33.7336 35.8331 33.6757 35.867 33.6287C35.8979 33.6056 35.9482 33.6287 36.0139 33.6519L37.7881 34.6763C37.8478 34.7067 37.8975 34.7536 37.9312 34.8116C37.9569 34.8767 37.9688 34.9465 37.966 35.0164V35.229C37.9737 35.2868 37.9614 35.3454 37.9312 35.3952C37.9041 35.4184 37.8577 35.3952 37.7881 35.3721L36.528 34.6415V35.5344L37.4093 36.0446C37.468 36.0751 37.5164 36.1221 37.5485 36.1799C37.5776 36.2441 37.5908 36.3144 37.5871 36.3848V36.5858C37.5871 36.6708 37.5871 36.7288 37.5485 36.752C37.5098 36.7752 37.475 36.752 37.4093 36.725L36.528 36.2186V37.1231L37.7843 37.8498C37.8449 37.8793 37.8939 37.9283 37.9234 37.989C37.9528 38.0544 37.9661 38.126 37.9621 38.1977V38.4026C37.9621 38.4915 37.9621 38.5456 37.9234 38.5649C37.8848 38.5842 37.8539 38.5649 37.7843 38.5378L36.0139 37.5174C35.9539 37.4859 35.9033 37.4393 35.867 37.3821Z" fill="#5A6376"/>
<path d="M38.3216 38.7961C38.2888 38.7302 38.2728 38.6572 38.2752 38.5836V35.2052C38.2715 35.1764 38.2736 35.1471 38.2816 35.1192C38.2896 35.0913 38.3032 35.0653 38.3216 35.0428C38.3487 35.0196 38.3989 35.0428 38.4685 35.066L39.3653 35.584C39.8305 35.8441 40.2145 36.2281 40.4747 36.6934C40.7464 37.2139 40.8795 37.7956 40.8612 38.3825C40.8612 39.0422 40.7324 39.4558 40.4747 39.6233C40.2195 39.7896 39.8485 39.7354 39.3691 39.4571L38.4724 38.9392C38.408 38.9091 38.3551 38.8589 38.3216 38.7961ZM39.4001 38.7961C39.6578 38.943 39.8472 38.9585 39.9683 38.8425C40.1291 38.5872 40.1948 38.2834 40.1538 37.9844C40.1705 37.6183 40.1071 37.2529 39.9683 36.9137C39.8441 36.6589 39.6461 36.4474 39.4001 36.3068L38.9787 36.0672V38.5565L39.4001 38.7961Z" fill="#5A6376"/>
<path d="M41.2516 40.4856C41.2187 40.4211 41.2028 40.3493 41.2052 40.2769V36.8985C41.2014 36.8697 41.2036 36.8405 41.2116 36.8125C41.2195 36.7846 41.2331 36.7586 41.2516 36.7362C41.2786 36.713 41.3289 36.7362 41.3984 36.7594L41.7193 36.9449C41.7825 36.9771 41.8339 37.0286 41.8662 37.0918C41.8981 37.1579 41.9128 37.2311 41.9087 37.3044V40.6828C41.9087 40.7678 41.9087 40.8219 41.8662 40.8451C41.8236 40.8683 41.7888 40.8451 41.7193 40.8181L41.3984 40.6325C41.3352 40.6003 41.2838 40.5489 41.2516 40.4856Z" fill="#5A6376"/>
<path d="M43.0993 41.5565C43.0678 41.4902 43.0531 41.4172 43.0567 41.3439V38.41L42.3532 38.0235C42.2961 37.991 42.2482 37.9444 42.2141 37.8882C42.185 37.8226 42.1717 37.7511 42.1754 37.6795V37.4669C42.1754 37.3818 42.1754 37.3277 42.2141 37.3045C42.2527 37.2813 42.2875 37.3045 42.3532 37.3277L44.4638 38.5453C44.5246 38.576 44.5745 38.6246 44.6068 38.6845C44.6373 38.7511 44.6518 38.8239 44.6493 38.8971V39.1058C44.6493 39.1909 44.6493 39.245 44.6068 39.2643C44.5643 39.2836 44.5333 39.2643 44.4638 39.2411L43.7834 38.8198V41.7536C43.7834 41.8387 43.7834 41.8889 43.7371 41.9121C43.6907 41.9353 43.6597 41.9121 43.5863 41.8851L43.2693 41.7034C43.1994 41.6724 43.1402 41.6212 43.0993 41.5565Z" fill="#5A6376"/>
<path d="M46.7753 43.3003C46.4938 42.7658 46.3528 42.1686 46.3655 41.5647C46.3655 40.9076 46.497 40.4824 46.7521 40.293C47.0072 40.1036 47.4015 40.1461 47.9117 40.4321C48.114 40.5481 48.3032 40.6854 48.4761 40.8419C48.6376 40.9855 48.7816 41.1477 48.9051 41.325C48.9327 41.3574 48.9478 41.3985 48.9476 41.441C48.9496 41.4711 48.9415 41.5011 48.9244 41.526L48.7737 41.785C48.7737 41.816 48.7351 41.8237 48.7157 41.8121C48.6865 41.7929 48.6615 41.7679 48.6423 41.7386C48.469 41.5033 48.2493 41.3059 47.9967 41.1588C47.703 40.9926 47.4749 40.9733 47.3126 41.1047C47.2142 41.2243 47.1417 41.363 47.0998 41.512C47.0579 41.6611 47.0474 41.8172 47.069 41.9706C47.0566 42.3723 47.1443 42.7708 47.3242 43.1302C47.4798 43.4384 47.7215 43.6948 48.0199 43.8685C48.2163 44.0054 48.4537 44.0709 48.6925 44.054C48.7163 44.0455 48.7422 44.0455 48.766 44.054C48.7949 44.0795 48.8151 44.1132 48.824 44.1507L48.994 44.6261C48.9982 44.653 48.9982 44.6804 48.994 44.7073C48.994 44.7305 48.994 44.7459 48.9438 44.7614C48.7196 44.8464 48.3756 44.7614 47.9117 44.487C47.4281 44.207 47.034 43.7955 46.7753 43.3003Z" fill="#5A6376"/>
<path d="M49.1602 45.0147C49.1565 44.9877 49.1565 44.9604 49.1602 44.9335L50.2658 42.0576C50.2752 42.0185 50.2986 41.9842 50.3315 41.961C50.3501 41.9562 50.3695 41.9557 50.3883 41.9598C50.4071 41.9638 50.4247 41.9722 50.4397 41.9842L50.7489 42.1658C50.7911 42.1872 50.8271 42.2192 50.8533 42.2586C50.8818 42.3135 50.9026 42.372 50.9152 42.4325L52.0245 46.584C52.0275 46.6162 52.0275 46.6485 52.0245 46.6807C52.0245 46.7464 51.9975 46.7657 51.9472 46.7348L51.4293 46.4371C51.3951 46.4186 51.3659 46.3921 51.3442 46.3598C51.3211 46.3215 51.3041 46.2798 51.294 46.2361L51.0968 45.463L50.0609 44.8639L49.8676 45.4244C49.8676 45.463 49.8367 45.4862 49.8174 45.4901C49.798 45.494 49.771 45.4901 49.7285 45.4669L49.2144 45.1693C49.1914 45.1515 49.1741 45.1274 49.1645 45.1C49.1549 45.0725 49.1534 45.0429 49.1602 45.0147ZM50.9577 44.7054L50.6021 43.2675L50.2464 44.2918L50.9577 44.7054Z" fill="#5A6376"/>
<path d="M52.4461 46.9524C52.4146 46.8861 52.4 46.8131 52.4035 46.7398V43.3614C52.3995 43.3329 52.4011 43.3038 52.4084 43.2759C52.4157 43.2481 52.4285 43.2219 52.4461 43.1991C52.477 43.1759 52.5272 43.1991 52.593 43.2223L53.6753 43.8485C54.0162 44.029 54.2991 44.3023 54.4913 44.6367C54.6835 44.9712 54.7771 45.3532 54.7615 45.7386C54.7756 45.9505 54.73 46.1621 54.63 46.3494C54.5912 46.4168 54.5346 46.4723 54.4665 46.5097C54.3983 46.5472 54.3212 46.5653 54.2435 46.562L54.6919 48.1314C54.6954 48.1596 54.6954 48.1882 54.6919 48.2164C54.6919 48.286 54.6648 48.3014 54.603 48.2666L54.1314 47.9922C54.0963 47.9751 54.0648 47.9515 54.0386 47.9226C54.0152 47.8858 53.9982 47.8453 53.9884 47.8028L53.6018 46.3262L53.0955 46.0324V47.1302C53.1033 47.1878 53.088 47.2462 53.0529 47.2926C53.022 47.3158 52.9756 47.2926 52.9022 47.2655L52.5814 47.08C52.5266 47.0491 52.4801 47.0053 52.4461 46.9524ZM53.5709 45.6227C53.7333 45.7155 53.8569 45.7387 53.9381 45.6961C54.0193 45.6536 54.0579 45.5299 54.0579 45.3328C54.0645 45.1613 54.0273 44.991 53.9497 44.838C53.8694 44.6991 53.7532 44.5843 53.6134 44.5056L53.1071 44.2157V45.3521L53.5709 45.6227Z" fill="#5A6376"/>
<path d="M55.1557 48.513C55.1232 48.4483 55.1072 48.3766 55.1093 48.3043V44.9259C55.1093 44.8408 55.1248 44.7867 55.1557 44.7635C55.1866 44.7403 55.233 44.7635 55.3026 44.7867L56.1994 45.3047C56.6652 45.5623 57.0495 45.9453 57.3087 46.4102C57.5799 46.9309 57.713 47.5125 57.6953 48.0994C57.6953 48.7604 57.5677 49.174 57.3087 49.3441C57.0498 49.5141 56.6825 49.4561 56.2032 49.1778L55.3026 48.6753C55.2379 48.6378 55.1866 48.581 55.1557 48.513ZM56.2342 48.513C56.4918 48.6599 56.6813 48.6753 56.8024 48.5594C56.9261 48.4473 56.9879 48.1728 56.9879 47.7051C57.0049 47.3389 56.9416 46.9735 56.8024 46.6344C56.6792 46.3789 56.481 46.1672 56.2342 46.0275L55.8167 45.784V48.2733L56.2342 48.513Z" fill="#5A6376"/>
<g opacity="0.15">
<path d="M41.2516 40.4856C41.2187 40.4211 41.2028 40.3493 41.2052 40.2769V36.8985C41.2014 36.8697 41.2036 36.8405 41.2116 36.8125C41.2195 36.7846 41.2331 36.7586 41.2516 36.7362C41.2786 36.713 41.3289 36.7362 41.3984 36.7594L41.7193 36.9449C41.7825 36.9771 41.8339 37.0286 41.8662 37.0918C41.8981 37.1579 41.9128 37.2311 41.9087 37.3044V40.6828C41.9087 40.7678 41.9087 40.8219 41.8662 40.8451C41.8236 40.8683 41.7888 40.8451 41.7193 40.8181L41.3984 40.6325C41.3352 40.6003 41.2838 40.5489 41.2516 40.4856Z" fill="#5A6376"/>
</g>
<path d="M17.4135 41.7917L19.3114 42.8895C19.4422 42.9735 19.5511 43.0874 19.6291 43.2218C19.707 43.3563 19.7519 43.5074 19.7598 43.6626V44.2424C19.7598 44.5284 19.5588 44.629 19.3114 44.5014L17.4135 43.4036C17.2831 43.3192 17.1746 43.2052 17.0966 43.0708C17.0187 42.9365 16.9736 42.7856 16.9651 42.6305V42.0507C16.9651 41.7647 17.1661 41.6487 17.4135 41.7917Z" fill="#00A656"/>
<path d="M13.2235 39.3718L15.1215 40.4696C15.2518 40.554 15.3604 40.668 15.4383 40.8024C15.5162 40.9367 15.5613 41.0876 15.5699 41.2427V41.8225C15.5699 42.1085 15.3689 42.209 15.1215 42.0815L13.2235 40.9837C13.0932 40.8993 12.9846 40.7852 12.9067 40.6509C12.8288 40.5165 12.7837 40.3657 12.7751 40.2106V39.6308C12.7751 39.3447 12.9762 39.2288 13.2235 39.3718Z" fill="#00A656"/>
<path d="M37.2123 57.2537L13.5559 43.5971C13.1461 43.3574 12.8137 43.5507 12.8137 44.0262V44.7258C12.8276 44.9841 12.902 45.2355 13.0309 45.4598C13.1598 45.684 13.3397 45.8749 13.5559 46.0169L37.2123 59.6696C37.6259 59.9092 37.9583 59.7159 37.9583 59.2405V58.5409C37.945 58.2825 37.8703 58.0311 37.7406 57.8073C37.6109 57.5835 37.4298 57.3937 37.2123 57.2537Z" fill="#00A656"/>
<path d="M17.4135 41.7917L19.3114 42.8895C19.4422 42.9735 19.5511 43.0874 19.6291 43.2218C19.707 43.3563 19.7519 43.5074 19.7598 43.6626V44.2424C19.7598 44.5284 19.5588 44.629 19.3114 44.5014L17.4135 43.4036C17.2831 43.3192 17.1746 43.2052 17.0966 43.0708C17.0187 42.9365 16.9736 42.7856 16.9651 42.6305V42.0507C16.9651 41.7647 17.1661 41.6487 17.4135 41.7917Z" fill="#5A6376"/>
<path d="M13.2235 39.3718L15.1215 40.4696C15.2518 40.554 15.3604 40.668 15.4383 40.8024C15.5162 40.9367 15.5613 41.0876 15.5699 41.2427V41.8225C15.5699 42.1085 15.3689 42.209 15.1215 42.0815L13.2235 40.9837C13.0932 40.8993 12.9846 40.7852 12.9067 40.6509C12.8288 40.5165 12.7837 40.3657 12.7751 40.2106V39.6308C12.7751 39.3447 12.9762 39.2288 13.2235 39.3718Z" fill="#5A6376"/>
<path d="M37.2123 57.2537L13.5559 43.5971C13.1461 43.3574 12.8137 43.5507 12.8137 44.0262V44.7258C12.8276 44.9841 12.902 45.2355 13.0309 45.4598C13.1598 45.684 13.3397 45.8749 13.5559 46.0169L37.2123 59.6696C37.6259 59.9092 37.9583 59.7159 37.9583 59.2405V58.5409C37.945 58.2825 37.8703 58.0311 37.7406 57.8073C37.6109 57.5835 37.4298 57.3937 37.2123 57.2537Z" fill="#5A6376"/>
<path d="M13.2466 32.7863L13.3355 32.8365C13.4831 32.9425 13.6037 33.0817 13.6876 33.2428C13.7716 33.4039 13.8165 33.5825 13.8187 33.7642V35.6274C13.8187 35.983 13.6022 36.1531 13.3278 36.0139L13.2543 35.9752C13.1052 35.8739 12.9826 35.738 12.8972 35.5792C12.8117 35.4204 12.7658 35.2433 12.7634 35.063V33.1612C12.775 32.7979 12.9915 32.6316 13.2466 32.7863Z" fill="#FAFAFA"/>
<path d="M15.759 34.2381L15.8441 34.2884C15.9918 34.3935 16.1129 34.5319 16.1975 34.6924C16.2821 34.8528 16.3278 35.0309 16.3311 35.2122V37.0792C16.3311 37.4387 16.1108 37.6088 15.8402 37.4658L15.7629 37.4232C15.6135 37.3221 15.4908 37.1863 15.4053 37.0275C15.3198 36.8686 15.2741 36.6914 15.272 36.511V34.6053C15.272 34.2459 15.4884 34.0835 15.759 34.2381Z" fill="#FAFAFA"/>
<path d="M18.2716 35.6886L18.3605 35.7389C18.508 35.8448 18.6287 35.984 18.7126 36.1451C18.7965 36.3063 18.8414 36.4849 18.8436 36.6666V38.5297C18.8436 38.8853 18.6233 39.0554 18.3527 38.9162L18.2793 38.8776C18.1296 38.7767 18.0068 38.641 17.9213 38.4821C17.8357 38.3231 17.7901 38.1458 17.7884 37.9654V36.0636C17.7729 35.7002 17.9894 35.534 18.2716 35.6886Z" fill="#FAFAFA"/>
<path d="M20.7532 37.1425L20.8421 37.1927C20.9892 37.2983 21.1095 37.4369 21.1934 37.5973C21.2773 37.7577 21.3224 37.9356 21.3253 38.1166V39.9797C21.3253 40.3392 21.1049 40.5093 20.8344 40.3663L20.7609 40.3237C20.6118 40.2224 20.4892 40.0865 20.4038 39.9277C20.3183 39.7689 20.2724 39.5918 20.27 39.4115V37.5058C20.27 37.1502 20.4865 36.9879 20.7532 37.1425Z" fill="#FAFAFA"/>
<path d="M24.9434 39.5304L25.0323 39.5807C25.1799 39.6866 25.3005 39.8258 25.3845 39.9869C25.4684 40.1481 25.5133 40.3267 25.5155 40.5084V42.3715C25.5155 42.7271 25.2952 42.8972 25.0246 42.758L24.9512 42.7194C24.802 42.618 24.6795 42.4822 24.594 42.3234C24.5085 42.1646 24.4627 41.9875 24.4603 41.8072V39.9054C24.4564 39.542 24.6767 39.3758 24.9434 39.5304Z" fill="#FAFAFA"/>
<path d="M27.4404 40.9846L27.5293 41.0348C27.6764 41.1404 27.7967 41.2789 27.8806 41.4394C27.9645 41.5998 28.0097 41.7776 28.0125 41.9586V43.8218C28.0125 44.1774 27.7922 44.3475 27.5216 44.2083L27.4443 44.1697C27.2951 44.0683 27.1726 43.9325 27.0871 43.7737C27.0017 43.6148 26.9558 43.4378 26.9534 43.2574V41.3324C26.9572 40.9923 27.1621 40.8299 27.4404 40.9846Z" fill="#FAFAFA"/>
<path d="M29.9414 42.4329L30.0264 42.4831C30.1747 42.5887 30.2961 42.7277 30.3807 42.8888C30.4653 43.05 30.5108 43.2288 30.5135 43.4108V45.274C30.5135 45.6296 30.2931 45.7997 30.0226 45.6605L29.9453 45.618C29.7964 45.5172 29.674 45.3821 29.5886 45.2239C29.5031 45.0658 29.4571 44.8893 29.4543 44.7096V42.8001C29.4543 42.4445 29.6708 42.2783 29.9414 42.4329Z" fill="#FAFAFA"/>
<path d="M32.4385 43.8862L32.5274 43.9364C32.6745 44.042 32.7948 44.1806 32.8787 44.341C32.9626 44.5014 33.0078 44.6793 33.0106 44.8603V46.7427C33.0106 47.0984 32.7903 47.2684 32.5197 47.1293L32.4462 47.0906C32.2971 46.9893 32.1745 46.8534 32.0891 46.6946C32.0036 46.5358 31.9577 46.3587 31.9553 46.1784V44.2766C31.9553 43.8939 32.1872 43.7316 32.4385 43.8862Z" fill="#FAFAFA"/>
<path d="M36.6287 46.2751L36.7176 46.3254C36.8652 46.4313 36.9858 46.5705 37.0697 46.7316C37.1537 46.8928 37.1985 47.0714 37.2008 47.2531V49.1162C37.2008 49.4718 36.9804 49.6419 36.7099 49.5027L36.6364 49.4602C36.4876 49.3595 36.3652 49.2243 36.2797 49.0661C36.1943 48.908 36.1482 48.7316 36.1455 48.5518V46.6501C36.1455 46.2828 36.362 46.1205 36.6287 46.2751Z" fill="#FAFAFA"/>
<path d="M39.145 47.7283L39.2339 47.7785C39.381 47.8841 39.5013 48.0227 39.5852 48.1831C39.6691 48.3435 39.7143 48.5214 39.7171 48.7024V50.5655C39.7171 50.9212 39.5006 51.0912 39.2262 50.9521L39.1527 50.9134C39.0036 50.8121 38.8811 50.6762 38.7956 50.5174C38.7101 50.3586 38.6643 50.1815 38.6618 50.0012V48.0994C38.6425 47.736 38.859 47.5737 39.145 47.7283Z" fill="#FAFAFA"/>
<path d="M41.6267 49.1795L41.7117 49.2297C41.86 49.3353 41.9814 49.4743 42.066 49.6354C42.1506 49.7966 42.1961 49.9754 42.1988 50.1574V52.0167C42.1988 52.3762 41.9784 52.5463 41.7079 52.4032L41.6306 52.3607C41.4811 52.2596 41.3585 52.1238 41.273 51.9649C41.1875 51.8061 41.1417 51.6289 41.1396 51.4485V49.5506C41.1396 49.1872 41.3561 49.0248 41.6267 49.1795Z" fill="#FAFAFA"/>
<path d="M44.1236 50.6282L44.2125 50.6823C44.3596 50.7879 44.4799 50.9264 44.5638 51.0869C44.6477 51.2473 44.6929 51.4251 44.6957 51.6061V53.4693C44.6957 53.8249 44.4754 53.995 44.2048 53.8558L44.1313 53.8172C43.9817 53.7163 43.8588 53.5806 43.7733 53.4216C43.6878 53.2627 43.6422 53.0854 43.6404 52.9049V50.9954C43.6366 50.6398 43.8569 50.4736 44.1236 50.6282Z" fill="#FAFAFA"/>
<path d="M48.3137 53.0213L48.4027 53.0715C48.5502 53.1775 48.6708 53.3167 48.7548 53.4778C48.8387 53.6389 48.8836 53.8175 48.8858 53.9992V55.8585C48.8858 56.218 48.6655 56.3881 48.3949 56.245L48.3215 56.2025C48.1714 56.1021 48.0481 55.9665 47.9626 55.8075C47.877 55.6484 47.8317 55.4709 47.8306 55.2903V53.3924C47.8306 53.029 48.0354 52.8666 48.3137 53.0213Z" fill="#FAFAFA"/>
<path d="M50.8108 54.4752L50.8997 54.5293C51.0468 54.6349 51.1671 54.7734 51.251 54.9338C51.3349 55.0943 51.3801 55.2721 51.3829 55.4531V57.3163C51.3829 57.6719 51.1626 57.842 50.892 57.7028L50.8186 57.6641C50.6694 57.5628 50.5469 57.4269 50.4614 57.2681C50.3759 57.1093 50.33 56.9322 50.3276 56.7519V54.8501C50.3276 54.4752 50.5441 54.3167 50.8108 54.4752Z" fill="#FAFAFA"/>
<path d="M53.3079 55.9237L53.3968 55.9739C53.5438 56.0795 53.6642 56.2181 53.7481 56.3785C53.832 56.5389 53.8771 56.7167 53.88 56.8978V58.7609C53.88 59.1204 53.6635 59.2905 53.3891 59.1474L53.3156 59.1049C53.1662 59.0038 53.0435 58.868 52.958 58.7091C52.8725 58.5503 52.8268 58.3731 52.8247 58.1927V56.2909C52.8247 55.9314 53.0605 55.7691 53.3079 55.9237Z" fill="#FAFAFA"/>
<path d="M55.8088 57.3742L55.8939 57.4244C56.0422 57.53 56.1635 57.6689 56.2481 57.8301C56.3327 57.9913 56.3782 58.1701 56.3809 58.3521V60.2153C56.3809 60.5709 56.1606 60.7409 55.89 60.6018L55.8127 60.5631C55.6635 60.4618 55.541 60.3259 55.4555 60.1671C55.3701 60.0083 55.3242 59.8312 55.3218 59.6509V57.7491C55.3218 57.3858 55.5382 57.2195 55.8088 57.3742Z" fill="#FAFAFA"/>
<path d="M1.73558 61.8575L39.64 101.552C40.0265 101.965 40.4131 102.089 40.6373 101.938C40.8615 101.787 40.9736 101.501 40.9736 101.01V54.1382C40.9482 53.5476 40.8173 52.9664 40.587 52.422C40.3691 51.8287 40.0413 51.2818 39.6207 50.8101L1.73558 11.0928C0.64236 9.98047 0.0206279 8.48914 0 6.92969V57.6905C0.0196354 59.2513 0.641441 60.7442 1.73558 61.8575Z" fill="#37474F"/>
<path d="M2.70572 16.8015C2.65446 16.8015 2.60531 16.7811 2.56906 16.7449C2.53282 16.7087 2.51245 16.6595 2.51245 16.6082V16.0284C2.51295 15.9898 2.525 15.9523 2.54705 15.9206C2.5691 15.8889 2.60013 15.8645 2.63615 15.8506C2.67119 15.836 2.70983 15.8322 2.74706 15.8397C2.78428 15.8473 2.81836 15.8659 2.84488 15.8931L3.23142 16.3145C3.24954 16.3324 3.26392 16.3538 3.27373 16.3774C3.28354 16.4009 3.28859 16.4262 3.28859 16.4517C3.28859 16.4772 3.28354 16.5025 3.27373 16.526C3.26392 16.5496 3.24954 16.5709 3.23142 16.5889C3.21379 16.6069 3.19274 16.6212 3.16951 16.631C3.14628 16.6407 3.12133 16.6458 3.09614 16.6458C3.07094 16.6458 3.04599 16.6407 3.02276 16.631C2.99952 16.6212 2.97848 16.6069 2.96084 16.5889L2.89127 16.5193V16.5928C2.89337 16.6188 2.89018 16.645 2.8819 16.6697C2.87362 16.6945 2.86041 16.7173 2.84307 16.7368C2.82574 16.7563 2.80463 16.7721 2.78102 16.7832C2.75742 16.7943 2.7318 16.8005 2.70572 16.8015Z" fill="#5A6376"/>
<path d="M38.2677 93.9025C38.2168 93.9015 38.1682 93.8808 38.1322 93.8448C38.0961 93.8088 38.0755 93.7602 38.0745 93.7092V92.5689C38.0745 92.5177 38.0948 92.4685 38.1311 92.4323C38.1673 92.396 38.2165 92.3757 38.2677 92.3757C38.319 92.3757 38.3682 92.396 38.4044 92.4323C38.4407 92.4685 38.461 92.5177 38.461 92.5689V93.7092C38.461 93.7605 38.4407 93.8096 38.4044 93.8459C38.3682 93.8821 38.319 93.9025 38.2677 93.9025ZM38.2677 90.8604C38.2165 90.8604 38.1673 90.84 38.1311 90.8038C38.0948 90.7676 38.0745 90.7184 38.0745 90.6671V89.5346C38.0745 89.4833 38.0948 89.4341 38.1311 89.3979C38.1673 89.3617 38.2165 89.3413 38.2677 89.3413C38.319 89.3413 38.3682 89.3617 38.4044 89.3979C38.4407 89.4341 38.461 89.4833 38.461 89.5346V90.6749C38.461 90.7261 38.4407 90.7753 38.4044 90.8115C38.3682 90.8478 38.319 90.8681 38.2677 90.8681V90.8604ZM38.2677 87.8183C38.2165 87.8183 38.1673 87.798 38.1311 87.7617C38.0948 87.7255 38.0745 87.6763 38.0745 87.625V86.4847C38.0745 86.4335 38.0948 86.3843 38.1311 86.3481C38.1673 86.3118 38.2165 86.2915 38.2677 86.2915C38.319 86.2915 38.3682 86.3118 38.4044 86.3481C38.4407 86.3843 38.461 86.4335 38.461 86.4847V87.625C38.4621 87.6511 38.4578 87.677 38.4486 87.7014C38.4393 87.7257 38.4253 87.748 38.4072 87.7667C38.3892 87.7855 38.3675 87.8004 38.3435 87.8106C38.3196 87.8208 38.2938 87.8261 38.2677 87.826V87.8183ZM38.2677 84.7762C38.2165 84.7762 38.1673 84.7559 38.1311 84.7196C38.0948 84.6834 38.0745 84.6342 38.0745 84.583V83.4233C38.0745 83.3721 38.0948 83.3229 38.1311 83.2867C38.1673 83.2504 38.2165 83.2301 38.2677 83.2301C38.319 83.2301 38.3682 83.2504 38.4044 83.2867C38.4407 83.3229 38.461 83.3721 38.461 83.4233V84.583C38.4621 84.609 38.4578 84.6349 38.4486 84.6593C38.4393 84.6836 38.4253 84.7059 38.4072 84.7246C38.3892 84.7434 38.3675 84.7583 38.3435 84.7685C38.3196 84.7787 38.2938 84.784 38.2677 84.784V84.7762ZM38.2677 81.7341C38.2165 81.7341 38.1673 81.7138 38.1311 81.6775C38.0948 81.6413 38.0745 81.5921 38.0745 81.5409V80.3812C38.0745 80.33 38.0948 80.2808 38.1311 80.2446C38.1673 80.2083 38.2165 80.188 38.2677 80.188C38.319 80.188 38.3682 80.2083 38.4044 80.2446C38.4407 80.2808 38.461 80.33 38.461 80.3812V81.5409C38.4621 81.5669 38.4578 81.5928 38.4486 81.6172C38.4393 81.6415 38.4253 81.6638 38.4072 81.6825C38.3892 81.7013 38.3675 81.7162 38.3435 81.7264C38.3196 81.7366 38.2938 81.7419 38.2677 81.7419V81.7341ZM38.2677 78.692C38.2165 78.692 38.1673 78.6717 38.1311 78.6354C38.0948 78.5992 38.0745 78.55 38.0745 78.4988V77.3585C38.0755 77.3075 38.0961 77.2589 38.1322 77.2229C38.1682 77.1869 38.2168 77.1662 38.2677 77.1652C38.319 77.1652 38.3682 77.1855 38.4044 77.2218C38.4407 77.258 38.461 77.3072 38.461 77.3585V78.4988C38.4621 78.5248 38.4578 78.5508 38.4486 78.5751C38.4393 78.5995 38.4253 78.6217 38.4072 78.6404C38.3892 78.6592 38.3675 78.6742 38.3435 78.6843C38.3196 78.6945 38.2938 78.6998 38.2677 78.6998V78.692ZM38.2677 75.6499C38.2165 75.6499 38.1673 75.6296 38.1311 75.5933C38.0948 75.5571 38.0745 75.5079 38.0745 75.4567V74.3164C38.0755 74.2654 38.0961 74.2168 38.1322 74.1808C38.1682 74.1448 38.2168 74.1241 38.2677 74.1231C38.319 74.1231 38.3682 74.1435 38.4044 74.1797C38.4407 74.2159 38.461 74.2651 38.461 74.3164V75.4567C38.4621 75.4827 38.4578 75.5087 38.4486 75.533C38.4393 75.5573 38.4253 75.5796 38.4072 75.5984C38.3892 75.6171 38.3675 75.6321 38.3435 75.6423C38.3196 75.6525 38.2938 75.6577 38.2677 75.6577V75.6499ZM38.2677 72.6117C38.2168 72.6107 38.1682 72.59 38.1322 72.554C38.0961 72.518 38.0755 72.4694 38.0745 72.4184V71.2588C38.0755 71.2079 38.0961 71.1593 38.1322 71.1232C38.1682 71.0872 38.2168 71.0665 38.2677 71.0655C38.319 71.0655 38.3682 71.0859 38.4044 71.1221C38.4407 71.1584 38.461 71.2076 38.461 71.2588V72.4184C38.4621 72.4445 38.4578 72.4704 38.4486 72.4948C38.4393 72.5191 38.4253 72.5414 38.4072 72.5601C38.3892 72.5789 38.3675 72.5938 38.3435 72.604C38.3196 72.6142 38.2938 72.6195 38.2677 72.6194V72.6117ZM38.2677 69.5696C38.2168 69.5686 38.1682 69.5479 38.1322 69.5119C38.0961 69.4759 38.0755 69.4273 38.0745 69.3763V68.236C38.0745 68.1848 38.0948 68.1356 38.1311 68.0994C38.1673 68.0631 38.2165 68.0428 38.2677 68.0428C38.319 68.0428 38.3682 68.0631 38.4044 68.0994C38.4407 68.1356 38.461 68.1848 38.461 68.236V69.3763C38.4621 69.4024 38.4578 69.4283 38.4486 69.4527C38.4393 69.477 38.4253 69.4993 38.4072 69.518C38.3892 69.5368 38.3675 69.5517 38.3435 69.5619C38.3196 69.5721 38.2938 69.5774 38.2677 69.5773V69.5696ZM38.2677 66.5275C38.2168 66.5265 38.1682 66.5059 38.1322 66.4698C38.0961 66.4338 38.0755 66.3852 38.0745 66.3342V65.194C38.0745 65.1427 38.0948 65.0935 38.1311 65.0573C38.1673 65.021 38.2165 65.0007 38.2677 65.0007C38.319 65.0007 38.3682 65.021 38.4044 65.0573C38.4407 65.0935 38.461 65.1427 38.461 65.194V66.3342C38.4621 66.3603 38.4578 66.3862 38.4486 66.4106C38.4393 66.4349 38.4253 66.4572 38.4072 66.4759C38.3892 66.4947 38.3675 66.5096 38.3435 66.5198C38.3196 66.53 38.2938 66.5353 38.2677 66.5353V66.5275ZM38.2677 63.4854C38.2168 63.4844 38.1682 63.4637 38.1322 63.4277C38.0961 63.3917 38.0755 63.3431 38.0745 63.2922V62.1518C38.0745 62.1006 38.0948 62.0514 38.1311 62.0152C38.1673 61.9789 38.2165 61.9586 38.2677 61.9586C38.319 61.9586 38.3682 61.9789 38.4044 62.0152C38.4407 62.0514 38.461 62.1006 38.461 62.1518V63.2922C38.4621 63.3182 38.4578 63.3441 38.4486 63.3685C38.4393 63.3928 38.4253 63.4151 38.4072 63.4338C38.3892 63.4526 38.3675 63.4676 38.3435 63.4777C38.3196 63.4879 38.2938 63.4932 38.2677 63.4931V63.4854ZM38.2677 60.4433C38.2165 60.4433 38.1673 60.423 38.1311 60.3867C38.0948 60.3505 38.0745 60.3013 38.0745 60.2501V59.1136C38.0745 59.0624 38.0948 59.0132 38.1311 58.977C38.1673 58.9407 38.2165 58.9203 38.2677 58.9203C38.319 58.9203 38.3682 58.9407 38.4044 58.977C38.4407 59.0132 38.461 59.0624 38.461 59.1136V60.2733C38.4571 60.3218 38.4351 60.3671 38.3992 60.4C38.3634 60.433 38.3164 60.4512 38.2677 60.4511V60.4433ZM38.2677 57.4012C38.2165 57.4012 38.1673 57.3809 38.1311 57.3446C38.0948 57.3084 38.0745 57.2592 38.0745 57.208V56.0677C38.0745 56.0164 38.0948 55.9672 38.1311 55.931C38.1673 55.8948 38.2165 55.8744 38.2677 55.8744C38.319 55.8744 38.3682 55.8948 38.4044 55.931C38.4407 55.9672 38.461 56.0164 38.461 56.0677V57.208C38.4621 57.234 38.4578 57.26 38.4486 57.2843C38.4393 57.3086 38.4253 57.3309 38.4072 57.3497C38.3892 57.3684 38.3675 57.3834 38.3435 57.3935C38.3196 57.4037 38.2938 57.409 38.2677 57.409V57.4012ZM38.2677 54.3437C38.2433 54.3453 38.2187 54.3418 38.1956 54.3337C38.1724 54.3255 38.1512 54.3127 38.1331 54.2961C38.115 54.2795 38.1005 54.2593 38.0905 54.237C38.0804 54.2146 38.075 54.1904 38.0745 54.1659C38.0573 53.9248 37.9998 53.6883 37.9044 53.4662C37.858 53.3541 37.8155 53.2536 37.773 53.1686C37.7611 53.1461 37.7539 53.1214 37.7517 53.0961C37.7496 53.0707 37.7526 53.0452 37.7605 53.021C37.7684 52.9969 37.7812 52.9745 37.7979 52.9554C37.8147 52.9363 37.8351 52.9207 37.858 52.9096C37.8805 52.8977 37.9052 52.8905 37.9305 52.8884C37.9559 52.8862 37.9814 52.8892 38.0056 52.8971C38.0297 52.9051 38.0521 52.9178 38.0712 52.9345C38.0903 52.9513 38.1059 52.9717 38.117 52.9946C38.1634 53.0913 38.2136 53.1995 38.2639 53.3271C38.3729 53.5826 38.4395 53.8541 38.461 54.1311C38.4642 54.1858 38.4457 54.2396 38.4096 54.2809C38.3734 54.3221 38.3225 54.3474 38.2677 54.3514V54.3437ZM36.7216 51.8427C36.6689 51.8412 36.6189 51.819 36.5824 51.7809L35.8093 50.9576C35.774 50.9201 35.7549 50.8702 35.7564 50.8187C35.7578 50.7673 35.7796 50.7185 35.8171 50.6831C35.8545 50.6477 35.9044 50.6287 35.9559 50.6301C36.0074 50.6316 36.0561 50.6534 36.0915 50.6908L36.8646 51.5142C36.8827 51.5322 36.8971 51.5535 36.9069 51.5771C36.9167 51.6006 36.9218 51.6259 36.9218 51.6514C36.9218 51.6769 36.9167 51.7022 36.9069 51.7257C36.8971 51.7493 36.8827 51.7707 36.8646 51.7886C36.8443 51.8099 36.8196 51.8265 36.7922 51.8371C36.7648 51.8478 36.7354 51.8524 36.7061 51.8505L36.7216 51.8427ZM34.6226 49.6394C34.5704 49.6393 34.5204 49.6185 34.4835 49.5815L33.7104 48.7543C33.6794 48.7166 33.6637 48.6687 33.6665 48.62C33.6694 48.5713 33.6905 48.5255 33.7258 48.4917C33.761 48.458 33.8076 48.4388 33.8564 48.438C33.9052 48.4372 33.9524 48.4549 33.9887 48.4876L34.7618 49.3148C34.7872 49.3422 34.8042 49.3764 34.8105 49.4132C34.8169 49.4501 34.8125 49.488 34.7978 49.5223C34.783 49.5567 34.7586 49.5861 34.7276 49.6068C34.6965 49.6276 34.66 49.639 34.6226 49.6394ZM32.5237 47.44C32.4978 47.4404 32.4721 47.4354 32.4481 47.4255C32.4242 47.4155 32.4026 47.4007 32.3846 47.382L31.6115 46.5548C31.5934 46.5369 31.579 46.5155 31.5692 46.4919C31.5594 46.4684 31.5543 46.4431 31.5543 46.4176C31.5543 46.3921 31.5594 46.3668 31.5692 46.3433C31.579 46.3197 31.5934 46.2984 31.6115 46.2804C31.6291 46.2624 31.6502 46.2481 31.6734 46.2383C31.6966 46.2286 31.7216 46.2235 31.7468 46.2235C31.772 46.2235 31.7969 46.2286 31.8201 46.2383C31.8434 46.2481 31.8644 46.2624 31.8821 46.2804L32.6551 47.1076C32.6806 47.135 32.6975 47.1692 32.7039 47.206C32.7103 47.2429 32.7058 47.2808 32.6911 47.3152C32.6764 47.3495 32.652 47.3789 32.6209 47.3997C32.5898 47.4205 32.5534 47.4318 32.516 47.4323L32.5237 47.44ZM30.4209 45.2406C30.3918 45.2474 30.3615 45.2471 30.3326 45.2397C30.3037 45.2323 30.2769 45.218 30.2547 45.1981L29.4816 44.3747C29.4635 44.3568 29.4491 44.3354 29.4393 44.3118C29.4295 44.2883 29.4245 44.263 29.4245 44.2375C29.4245 44.212 29.4295 44.1867 29.4393 44.1632C29.4491 44.1396 29.4635 44.1183 29.4816 44.1003C29.4996 44.0822 29.521 44.0678 29.5445 44.058C29.5681 44.0482 29.5933 44.0431 29.6188 44.0431C29.6444 44.0431 29.6696 44.0482 29.6932 44.058C29.7167 44.0678 29.7381 44.0822 29.7561 44.1003L30.5292 44.9236C30.5473 44.9416 30.5617 44.963 30.5715 44.9865C30.5813 45.0101 30.5863 45.0353 30.5863 45.0608C30.5863 45.0864 30.5813 45.1116 30.5715 45.1352C30.5617 45.1587 30.5473 45.1801 30.5292 45.1981C30.4948 45.2284 30.4512 45.2462 30.4055 45.2483L30.4209 45.2406ZM28.322 43.0489C28.2693 43.0473 28.2193 43.0251 28.1828 42.987L27.4098 42.1637C27.3744 42.1263 27.3553 42.0764 27.3568 42.0249C27.3582 41.9734 27.3801 41.9246 27.4175 41.8893C27.4549 41.8539 27.5048 41.8348 27.5563 41.8363C27.6078 41.8377 27.6566 41.8596 27.6919 41.897L28.465 42.7203C28.4831 42.7383 28.4975 42.7597 28.5073 42.7832C28.5171 42.8068 28.5222 42.832 28.5222 42.8576C28.5222 42.8831 28.5171 42.9083 28.5073 42.9319C28.4975 42.9554 28.4831 42.9768 28.465 42.9948C28.4263 43.0309 28.3749 43.0504 28.322 43.0489ZM26.2231 40.8456C26.1708 40.8455 26.1208 40.8246 26.0839 40.7876L25.3108 39.9604C25.2798 39.9228 25.2641 39.8748 25.2669 39.8261C25.2698 39.7774 25.2909 39.7316 25.3262 39.6979C25.3614 39.6641 25.4081 39.6449 25.4568 39.6442C25.5056 39.6434 25.5529 39.6611 25.5891 39.6937L26.3622 40.5209C26.3802 40.5385 26.3945 40.5596 26.4043 40.5828C26.414 40.606 26.4191 40.631 26.4191 40.6562C26.4191 40.6814 26.414 40.7063 26.4043 40.7296C26.3945 40.7528 26.3802 40.7738 26.3622 40.7915C26.3429 40.8125 26.3186 40.8284 26.2917 40.8379C26.2647 40.8473 26.2358 40.85 26.2076 40.8456H26.2231ZM24.1241 38.6462C24.0982 38.6468 24.0724 38.6419 24.0484 38.6319C24.0244 38.622 24.0028 38.607 23.985 38.5882L23.2119 37.761C23.1921 37.7432 23.1762 37.7215 23.1652 37.6973C23.1542 37.6731 23.1483 37.6469 23.1479 37.6203C23.1475 37.5937 23.1525 37.5674 23.1628 37.5428C23.173 37.5183 23.1882 37.4961 23.2074 37.4777C23.2266 37.4593 23.2494 37.4451 23.2743 37.4359C23.2993 37.4267 23.3259 37.4228 23.3524 37.4243C23.379 37.4259 23.4049 37.4329 23.4286 37.4449C23.4523 37.457 23.4733 37.4738 23.4902 37.4943L24.2633 38.3215C24.2813 38.3391 24.2956 38.3601 24.3053 38.3834C24.3151 38.4066 24.3201 38.4316 24.3201 38.4568C24.3201 38.482 24.3151 38.5069 24.3053 38.5301C24.2956 38.5534 24.2813 38.5744 24.2633 38.592C24.2429 38.6116 24.2185 38.6266 24.1919 38.6359C24.1652 38.6453 24.1368 38.6487 24.1087 38.6462H24.1241ZM22.0213 36.4467C21.9951 36.4469 21.9691 36.4414 21.9451 36.4307C21.9211 36.4201 21.8997 36.4044 21.8822 36.3849L21.1091 35.5616C21.0916 35.543 21.0779 35.5212 21.0688 35.4974C21.0597 35.4736 21.0554 35.4482 21.0561 35.4227C21.0568 35.3972 21.0626 35.3721 21.073 35.3489C21.0834 35.3256 21.0983 35.3046 21.1168 35.2871C21.1354 35.2696 21.1572 35.2559 21.181 35.2468C21.2048 35.2377 21.2302 35.2334 21.2557 35.2341C21.2811 35.2348 21.3062 35.2406 21.3295 35.251C21.3528 35.2614 21.3738 35.2763 21.3913 35.2948L22.1644 36.1182C22.1825 36.1361 22.1969 36.1575 22.2067 36.1811C22.2165 36.2046 22.2215 36.2299 22.2215 36.2554C22.2215 36.2809 22.2165 36.3062 22.2067 36.3297C22.1969 36.3533 22.1825 36.3746 22.1644 36.3926C22.1434 36.4125 22.1184 36.4276 22.091 36.437C22.0637 36.4463 22.0346 36.4496 22.0059 36.4467H22.0213ZM19.9224 34.2434C19.8702 34.2433 19.8201 34.2225 19.7833 34.1855L19.0102 33.3621C18.9921 33.3442 18.9777 33.3228 18.9679 33.2992C18.9581 33.2757 18.953 33.2504 18.953 33.2249C18.953 33.1994 18.9581 33.1741 18.9679 33.1506C18.9777 33.127 18.9921 33.1056 19.0102 33.0877C19.0278 33.0697 19.0489 33.0554 19.0721 33.0456C19.0953 33.0358 19.1203 33.0308 19.1455 33.0308C19.1707 33.0308 19.1956 33.0358 19.2188 33.0456C19.2421 33.0554 19.2631 33.0697 19.2807 33.0877L20.0538 33.911C20.0719 33.929 20.0863 33.9503 20.0961 33.9739C20.106 33.9975 20.111 34.0227 20.111 34.0482C20.111 34.0737 20.106 34.099 20.0961 34.1226C20.0863 34.1461 20.0719 34.1675 20.0538 34.1855C20.0344 34.2044 20.0114 34.2192 19.9862 34.2292C19.961 34.2391 19.9341 34.244 19.907 34.2434H19.9224ZM17.808 32.0556C17.7821 32.056 17.7564 32.051 17.7324 32.041C17.7085 32.0311 17.6869 32.0163 17.6689 31.9976L16.8958 31.1704C16.8778 31.1528 16.8635 31.1317 16.8537 31.1085C16.844 31.0853 16.8389 31.0603 16.8389 31.0351C16.8389 31.0099 16.844 30.985 16.8537 30.9618C16.8635 30.9385 16.8778 30.9175 16.8958 30.8998C16.9137 30.8817 16.9351 30.8673 16.9587 30.8575C16.9822 30.8477 17.0075 30.8427 17.033 30.8427C17.0585 30.8427 17.0838 30.8477 17.1073 30.8575C17.1309 30.8673 17.1523 30.8817 17.1702 30.8998L17.9433 31.727C17.9613 31.7447 17.9756 31.7657 17.9854 31.789C17.9951 31.8122 18.0002 31.8371 18.0002 31.8623C18.0002 31.8875 17.9951 31.9125 17.9854 31.9357C17.9756 31.9589 17.9613 31.98 17.9433 31.9976C17.9264 32.0166 17.9055 32.0316 17.8821 32.0416C17.8587 32.0516 17.8334 32.0564 17.808 32.0556ZM15.7052 29.8562C15.653 29.856 15.6029 29.8352 15.5661 29.7982L14.793 28.9633C14.7749 28.9453 14.7605 28.9239 14.7507 28.9004C14.7409 28.8768 14.7358 28.8515 14.7358 28.826C14.7358 28.8005 14.7409 28.7753 14.7507 28.7517C14.7605 28.7282 14.7749 28.7068 14.793 28.6888C14.8109 28.6707 14.8323 28.6563 14.8559 28.6465C14.8794 28.6367 14.9047 28.6316 14.9302 28.6316C14.9557 28.6316 14.981 28.6367 15.0045 28.6465C15.0281 28.6563 15.0495 28.6707 15.0674 28.6888L15.8405 29.516C15.8585 29.5336 15.8728 29.5547 15.8826 29.5779C15.8923 29.6012 15.8974 29.6261 15.8974 29.6513C15.8974 29.6765 15.8923 29.7014 15.8826 29.7247C15.8728 29.7479 15.8585 29.769 15.8405 29.7866C15.8044 29.8223 15.756 29.843 15.7052 29.8446V29.8562ZM13.6063 27.6567C13.58 27.6569 13.5541 27.6514 13.5301 27.6407C13.5061 27.6301 13.4846 27.6145 13.4671 27.5949L12.6941 26.7716C12.6587 26.7341 12.6396 26.6842 12.6411 26.6327C12.6425 26.5813 12.6644 26.5325 12.7018 26.4971C12.7392 26.4617 12.7891 26.4427 12.8406 26.4441C12.8921 26.4456 12.9409 26.4674 12.9762 26.5048L13.7493 27.3282C13.7674 27.3461 13.7818 27.3675 13.7916 27.3911C13.8014 27.4146 13.8065 27.4399 13.8065 27.4654C13.8065 27.4909 13.8014 27.5162 13.7916 27.5397C13.7818 27.5633 13.7674 27.5847 13.7493 27.6026C13.7089 27.6346 13.6577 27.6498 13.6063 27.6451V27.6567ZM11.5074 25.4573C11.4547 25.4557 11.4047 25.4335 11.3682 25.3955L10.5951 24.5721C10.5592 24.5352 10.5395 24.4856 10.5402 24.4341C10.5409 24.3826 10.5621 24.3336 10.599 24.2977C10.6359 24.2618 10.6855 24.242 10.737 24.2428C10.7885 24.2435 10.8375 24.2646 10.8734 24.3015L11.6465 25.1287C11.6646 25.1467 11.679 25.1681 11.6888 25.1916C11.6986 25.2152 11.7037 25.2405 11.7037 25.266C11.7037 25.2915 11.6986 25.3167 11.6888 25.3403C11.679 25.3638 11.6646 25.3852 11.6465 25.4032C11.6273 25.4191 11.6051 25.4311 11.5812 25.4383C11.5573 25.4456 11.5322 25.4481 11.5074 25.4457V25.4573ZM9.40844 23.254C9.38193 23.2545 9.35559 23.2496 9.33101 23.2396C9.30644 23.2296 9.28413 23.2148 9.26541 23.196L8.49233 22.3688C8.47433 22.3512 8.46003 22.3301 8.45027 22.3069C8.44051 22.2837 8.43548 22.2587 8.43548 22.2335C8.43548 22.2083 8.44051 22.1834 8.45027 22.1602C8.46003 22.1369 8.47433 22.1159 8.49233 22.0983C8.5103 22.0801 8.53167 22.0658 8.55523 22.0559C8.57878 22.0461 8.60404 22.0411 8.62955 22.0411C8.65506 22.0411 8.68033 22.0461 8.70388 22.0559C8.72743 22.0658 8.74881 22.0801 8.76678 22.0983L9.53986 22.9255C9.55786 22.9431 9.57216 22.9641 9.58192 22.9874C9.59168 23.0106 9.59671 23.0355 9.59671 23.0607C9.59671 23.0859 9.59168 23.1109 9.58192 23.1341C9.57216 23.1573 9.55786 23.1784 9.53986 23.196C9.52209 23.212 9.50133 23.2244 9.47878 23.2323C9.45622 23.2403 9.43232 23.2437 9.40844 23.2424V23.254ZM7.30564 21.0546C7.27939 21.0547 7.25342 21.0493 7.22943 21.0386C7.20544 21.0279 7.18399 21.0123 7.16649 20.9927L6.3934 20.1694C6.35803 20.132 6.33897 20.082 6.34042 20.0306C6.34187 19.9791 6.36371 19.9303 6.40113 19.895C6.43855 19.8596 6.48849 19.8405 6.53995 19.842C6.59142 19.8434 6.64021 19.8653 6.67558 19.9027L7.44866 20.726C7.46678 20.744 7.48116 20.7654 7.49097 20.7889C7.50078 20.8125 7.50583 20.8377 7.50583 20.8632C7.50583 20.8888 7.50078 20.914 7.49097 20.9376C7.48116 20.9611 7.46678 20.9825 7.44866 21.0005C7.40821 21.0325 7.35701 21.0477 7.30564 21.043V21.0546ZM5.20671 18.8552C5.18046 18.8553 5.15448 18.8498 5.1305 18.8392C5.10651 18.8285 5.08506 18.8129 5.06756 18.7933L4.29447 17.97C4.27635 17.952 4.26198 17.9306 4.25217 17.9071C4.24236 17.8835 4.2373 17.8583 4.2373 17.8327C4.2373 17.8072 4.24236 17.782 4.25217 17.7584C4.26198 17.7349 4.27635 17.7135 4.29447 17.6955C4.31211 17.6775 4.33316 17.6632 4.35639 17.6535C4.37962 17.6437 4.40456 17.6387 4.42976 17.6387C4.45496 17.6387 4.4799 17.6437 4.50314 17.6535C4.52637 17.6632 4.54741 17.6775 4.56505 17.6955L5.33814 18.5189C5.35625 18.5368 5.37063 18.5582 5.38044 18.5818C5.39025 18.6053 5.39531 18.6306 5.39531 18.6561C5.39531 18.6816 5.39025 18.7069 5.38044 18.7304C5.37063 18.754 5.35625 18.7753 5.33814 18.7933C5.3024 18.8263 5.25535 18.8443 5.20671 18.8436V18.8552Z" fill="#5A6376"/>
<path d="M36.5128 94.5512C36.4868 94.5518 36.461 94.547 36.4371 94.537C36.4131 94.527 36.3915 94.5121 36.3736 94.4932L35.558 93.639C35.5224 93.6022 35.5024 93.553 35.5024 93.5018C35.5024 93.4505 35.5224 93.4013 35.558 93.3645C35.576 93.3464 35.5974 93.332 35.6209 93.3222C35.6445 93.3124 35.6697 93.3074 35.6953 93.3074C35.7208 93.3074 35.746 93.3124 35.7696 93.3222C35.7931 93.332 35.8145 93.3464 35.8325 93.3645L36.6481 94.2188C36.6661 94.2364 36.6804 94.2575 36.6901 94.2807C36.6999 94.3039 36.7049 94.3289 36.7049 94.3541C36.7049 94.3793 36.6999 94.4042 36.6901 94.4275C36.6804 94.4507 36.6661 94.4717 36.6481 94.4894C36.6128 94.5269 36.5642 94.5491 36.5128 94.5512ZM34.3404 92.2783C34.3142 92.2785 34.2882 92.273 34.2642 92.2624C34.2402 92.2517 34.2188 92.2361 34.2013 92.2165L33.3857 91.3661C33.3503 91.3287 33.3312 91.2788 33.3327 91.2273C33.3341 91.1758 33.356 91.127 33.3934 91.0917C33.4308 91.0563 33.4807 91.0372 33.5322 91.0387C33.5837 91.0401 33.6325 91.062 33.6678 91.0994L34.4796 91.9498C34.4977 91.9678 34.5121 91.9891 34.5219 92.0127C34.5317 92.0362 34.5367 92.0615 34.5367 92.087C34.5367 92.1125 34.5317 92.1378 34.5219 92.1613C34.5121 92.1849 34.4977 92.2063 34.4796 92.2242C34.4414 92.2588 34.3919 92.2781 34.3404 92.2783ZM32.1874 90.0055C32.1611 90.0056 32.1351 90.0001 32.1112 89.9895C32.0872 89.9788 32.0657 89.9632 32.0482 89.9436L31.2365 89.0932C31.2184 89.0753 31.204 89.0539 31.1942 89.0303C31.1844 89.0068 31.1793 88.9815 31.1793 88.956C31.1793 88.9305 31.1844 88.9052 31.1942 88.8817C31.204 88.8581 31.2184 88.8368 31.2365 88.8188C31.2544 88.8007 31.2758 88.7863 31.2994 88.7765C31.3229 88.7667 31.3482 88.7616 31.3737 88.7616C31.3992 88.7616 31.4245 88.7667 31.448 88.7765C31.4716 88.7863 31.493 88.8007 31.5109 88.8188L32.3227 89.6692C32.3408 89.6871 32.3552 89.7085 32.365 89.7321C32.3748 89.7556 32.3798 89.7809 32.3798 89.8064C32.3798 89.8319 32.3748 89.8572 32.365 89.8807C32.3552 89.9043 32.3408 89.9257 32.3227 89.9436C32.2871 89.9808 32.2387 90.0029 32.1874 90.0055ZM29.9995 87.7171C29.9734 87.7168 29.9475 87.7111 29.9236 87.7005C29.8997 87.6899 29.8782 87.6745 29.8604 87.6553L29.0448 86.801C29.0137 86.7634 28.9981 86.7154 29.0009 86.6667C29.0037 86.618 29.0249 86.5722 29.0601 86.5385C29.0953 86.5047 29.142 86.4855 29.1908 86.4848C29.2396 86.484 29.2868 86.5017 29.3231 86.5343L30.1387 87.3886C30.1568 87.4065 30.1712 87.4279 30.181 87.4515C30.1908 87.475 30.1959 87.5003 30.1959 87.5258C30.1959 87.5513 30.1908 87.5766 30.181 87.6001C30.1712 87.6237 30.1568 87.6451 30.1387 87.663C30.1012 87.6986 30.0512 87.718 29.9995 87.7171ZM27.8272 85.4404C27.7749 85.4403 27.7249 85.4194 27.688 85.3824L26.8724 84.5282C26.8544 84.5105 26.8401 84.4895 26.8303 84.4662C26.8206 84.443 26.8156 84.4181 26.8156 84.3929C26.8156 84.3677 26.8206 84.3427 26.8303 84.3195C26.8401 84.2963 26.8544 84.2752 26.8724 84.2576C26.8904 84.2395 26.9117 84.2251 26.9353 84.2153C26.9589 84.2055 26.9841 84.2004 27.0096 84.2004C27.0351 84.2004 27.0604 84.2055 27.084 84.2153C27.1075 84.2251 27.1289 84.2395 27.1468 84.2576L27.9586 85.1118C27.9767 85.1298 27.9911 85.1512 28.0009 85.1747C28.0107 85.1983 28.0158 85.2235 28.0158 85.2491C28.0158 85.2746 28.0107 85.2998 28.0009 85.3234C27.9911 85.3469 27.9767 85.3683 27.9586 85.3863C27.925 85.4251 27.8781 85.45 27.8272 85.4559V85.4404ZM25.6548 83.1675C25.6026 83.1674 25.5525 83.1465 25.5156 83.1095L24.7039 82.2553C24.6841 82.2375 24.6682 82.2158 24.6572 82.1916C24.6462 82.1674 24.6403 82.1412 24.6399 82.1146C24.6395 82.0881 24.6445 82.0617 24.6548 82.0371C24.665 82.0126 24.6802 81.9904 24.6994 81.972C24.7186 81.9536 24.7414 81.9394 24.7663 81.9302C24.7913 81.921 24.8179 81.9171 24.8444 81.9186C24.871 81.9202 24.8969 81.9272 24.9206 81.9392C24.9443 81.9513 24.9653 81.9681 24.9822 81.9886L25.7978 82.8428C25.8158 82.8605 25.8301 82.8815 25.8399 82.9047C25.8496 82.928 25.8547 82.9529 25.8547 82.9781C25.8547 83.0033 25.8496 83.0283 25.8399 83.0515C25.8301 83.0747 25.8158 83.0958 25.7978 83.1134C25.7808 83.1351 25.7591 83.1526 25.7343 83.1647C25.7095 83.1767 25.6823 83.183 25.6548 83.183V83.1675ZM23.4863 80.8947C23.4604 80.895 23.4346 80.8901 23.4107 80.8801C23.3868 80.8701 23.3651 80.8554 23.3471 80.8367L22.5238 79.9863C22.5057 79.9683 22.4913 79.9469 22.4815 79.9234C22.4717 79.8998 22.4666 79.8746 22.4666 79.8491C22.4666 79.8235 22.4717 79.7983 22.4815 79.7747C22.4913 79.7512 22.5057 79.7298 22.5238 79.7118C22.5414 79.6938 22.5625 79.6795 22.5857 79.6698C22.6089 79.66 22.6339 79.655 22.6591 79.655C22.6843 79.655 22.7092 79.66 22.7325 79.6698C22.7557 79.6795 22.7767 79.6938 22.7944 79.7118L23.61 80.5622C23.6281 80.5802 23.6425 80.6016 23.6523 80.6251C23.6621 80.6487 23.6671 80.6739 23.6671 80.6995C23.6671 80.725 23.6621 80.7502 23.6523 80.7738C23.6425 80.7973 23.6281 80.8187 23.61 80.8367C23.58 80.8765 23.5356 80.9029 23.4863 80.9101V80.8947ZM21.3139 78.6218C21.2877 78.6219 21.2617 78.6165 21.2377 78.6058C21.2137 78.5951 21.1923 78.5795 21.1748 78.5599L20.3591 77.7095C20.3238 77.6721 20.3047 77.6222 20.3062 77.5707C20.3076 77.5192 20.3295 77.4705 20.3669 77.4351C20.4043 77.3997 20.4542 77.3807 20.5057 77.3821C20.5572 77.3836 20.606 77.4054 20.6413 77.4428L21.4531 78.2932C21.4712 78.3112 21.4856 78.3326 21.4954 78.3561C21.5052 78.3797 21.5102 78.4049 21.5102 78.4304C21.5102 78.456 21.5052 78.4812 21.4954 78.5048C21.4856 78.5283 21.4712 78.5497 21.4531 78.5677C21.4357 78.5879 21.4144 78.6045 21.3905 78.6165C21.3666 78.6284 21.3406 78.6355 21.3139 78.6372V78.6218ZM19.1415 76.3489C19.1153 76.349 19.0893 76.3436 19.0653 76.3329C19.0413 76.3223 19.0199 76.3066 19.0024 76.2871L18.1906 75.4367C18.1709 75.4189 18.155 75.3972 18.144 75.373C18.133 75.3488 18.1271 75.3226 18.1266 75.296C18.1262 75.2694 18.1313 75.243 18.1415 75.2185C18.1518 75.194 18.167 75.1718 18.1862 75.1534C18.2053 75.135 18.2281 75.1208 18.2531 75.1116C18.278 75.1024 18.3046 75.0985 18.3312 75.1C18.3577 75.1016 18.3836 75.1086 18.4073 75.1206C18.4311 75.1326 18.452 75.1494 18.469 75.17L19.2846 76.0203C19.3027 76.0383 19.317 76.0597 19.3269 76.0832C19.3367 76.1068 19.3417 76.1321 19.3417 76.1576C19.3417 76.1831 19.3367 76.2083 19.3269 76.2319C19.317 76.2555 19.3027 76.2768 19.2846 76.2948C19.2667 76.3155 19.2448 76.3324 19.2202 76.3443C19.1956 76.3563 19.1689 76.3631 19.1415 76.3644V76.3489ZM16.973 74.076C16.9203 74.0745 16.8704 74.0522 16.8339 74.0142L16.0183 73.1599C15.9872 73.1223 15.9716 73.0743 15.9744 73.0256C15.9773 72.9769 15.9984 72.9311 16.0336 72.8974C16.0688 72.8636 16.1155 72.8444 16.1643 72.8437C16.2131 72.8429 16.2603 72.8606 16.2966 72.8932L17.1122 73.7629C17.1303 73.7809 17.1447 73.8023 17.1545 73.8258C17.1643 73.8494 17.1694 73.8746 17.1694 73.9002C17.1694 73.9257 17.1643 73.9509 17.1545 73.9745C17.1447 73.998 17.1303 74.0194 17.1122 74.0374C17.0939 74.0554 17.0721 74.0694 17.0482 74.0787C17.0242 74.088 16.9987 74.0924 16.973 74.0915V74.076ZM14.7929 71.8148C14.7407 71.8146 14.6907 71.7938 14.6538 71.7568L13.8382 70.9025C13.8202 70.8849 13.8059 70.8638 13.7961 70.8406C13.7864 70.8174 13.7813 70.7924 13.7813 70.7672C13.7813 70.742 13.7864 70.7171 13.7961 70.6938C13.8059 70.6706 13.8202 70.6496 13.8382 70.6319C13.8561 70.6138 13.8775 70.5994 13.9011 70.5896C13.9246 70.5798 13.9499 70.5748 13.9754 70.5748C14.0009 70.5748 14.0262 70.5798 14.0497 70.5896C14.0733 70.5994 14.0946 70.6138 14.1126 70.6319L14.9244 71.4862C14.9517 71.5129 14.9703 71.5473 14.9777 71.5848C14.9851 71.6222 14.9811 71.6611 14.966 71.6962C14.951 71.7313 14.9256 71.7611 14.8934 71.7816C14.8611 71.802 14.8234 71.8122 14.7852 71.8109L14.7929 71.8148ZM12.6322 69.5496C12.6056 69.5501 12.5793 69.5452 12.5547 69.5352C12.5302 69.5252 12.5078 69.5104 12.4891 69.4916L11.6774 68.6374C11.6576 68.6196 11.6417 68.5979 11.6307 68.5737C11.6197 68.5495 11.6138 68.5233 11.6134 68.4967C11.613 68.4701 11.618 68.4438 11.6283 68.4192C11.6385 68.3947 11.6537 68.3725 11.6729 68.3541C11.6921 68.3357 11.7149 68.3215 11.7398 68.3123C11.7648 68.3031 11.7914 68.2992 11.8179 68.3007C11.8445 68.3023 11.8704 68.3093 11.8941 68.3213C11.9178 68.3334 11.9388 68.3502 11.9557 68.3707L12.7713 69.2249C12.7893 69.2426 12.8036 69.2636 12.8134 69.2868C12.8231 69.3101 12.8282 69.335 12.8282 69.3602C12.8282 69.3854 12.8231 69.4104 12.8134 69.4336C12.8036 69.4568 12.7893 69.4779 12.7713 69.4955C12.7533 69.5139 12.7315 69.5282 12.7075 69.5375C12.6836 69.5468 12.6579 69.551 12.6322 69.5496ZM10.4598 67.2767C10.4075 67.2766 10.3575 67.2558 10.3206 67.2188L9.50502 66.3645C9.48691 66.3465 9.47253 66.3252 9.46271 66.3016C9.4529 66.2781 9.44785 66.2528 9.44785 66.2273C9.44785 66.2018 9.4529 66.1765 9.46271 66.1529C9.47253 66.1294 9.48691 66.108 9.50502 66.09C9.52266 66.072 9.5437 66.0578 9.56693 66.048C9.59017 66.0382 9.61511 66.0332 9.64031 66.0332C9.66551 66.0332 9.69045 66.0382 9.71368 66.048C9.73691 66.0578 9.75796 66.072 9.77559 66.09L10.5912 66.9404C10.6093 66.9584 10.6237 66.9798 10.6335 67.0033C10.6433 67.0269 10.6484 67.0522 10.6484 67.0777C10.6484 67.1032 10.6433 67.1285 10.6335 67.152C10.6237 67.1756 10.6093 67.1969 10.5912 67.2149C10.5561 67.2493 10.509 67.2687 10.4598 67.269V67.2767ZM8.28741 65.0039C8.26116 65.004 8.23518 64.9985 8.21119 64.9879C8.1872 64.9772 8.16575 64.9616 8.14825 64.942L7.33264 64.0916C7.31513 64.0731 7.30144 64.0513 7.29235 64.0275C7.28327 64.0037 7.27896 63.9783 7.27967 63.9528C7.28039 63.9273 7.28612 63.9022 7.29654 63.8789C7.30695 63.8557 7.32185 63.8347 7.34038 63.8172C7.35891 63.7997 7.3807 63.786 7.40452 63.7769C7.42834 63.7678 7.45372 63.7635 7.4792 63.7642C7.50469 63.7649 7.52978 63.7706 7.55305 63.7811C7.57632 63.7915 7.59731 63.8064 7.61482 63.8249L8.42656 64.6753C8.44468 64.6933 8.45906 64.7146 8.46887 64.7382C8.47868 64.7617 8.48373 64.787 8.48373 64.8125C8.48373 64.838 8.47868 64.8633 8.46887 64.8869C8.45906 64.9104 8.44468 64.9318 8.42656 64.9498C8.38768 64.9822 8.33798 64.9988 8.28741 64.9961V65.0039ZM6.1189 62.731C6.09204 62.7314 6.0654 62.7261 6.04074 62.7155C6.01608 62.7048 5.99397 62.689 5.97588 62.6692L5.16414 61.8188C5.14437 61.801 5.12848 61.7793 5.11747 61.7551C5.10645 61.7309 5.10055 61.7047 5.10013 61.6781C5.09971 61.6515 5.10478 61.6251 5.11502 61.6006C5.12526 61.5761 5.14045 61.5539 5.15965 61.5355C5.17885 61.5171 5.20163 61.5029 5.22658 61.4937C5.25153 61.4845 5.27811 61.4806 5.30466 61.4821C5.3312 61.4837 5.35714 61.4907 5.38085 61.5027C5.40456 61.5147 5.42553 61.5315 5.44245 61.552L6.25806 62.4024C6.27617 62.4204 6.29055 62.4418 6.30036 62.4653C6.31018 62.4889 6.31523 62.5141 6.31523 62.5396C6.31523 62.5652 6.31018 62.5904 6.30036 62.614C6.29055 62.6375 6.27617 62.6589 6.25806 62.6769C6.21936 62.7097 6.16952 62.7263 6.1189 62.7233V62.731ZM3.94653 60.4581C3.89383 60.4566 3.84385 60.4343 3.80737 60.3963L3.55225 60.1296C3.35449 59.9259 3.1807 59.7002 3.03429 59.457C3.02035 59.4359 3.01087 59.4121 3.00643 59.3872C3.00199 59.3624 3.00269 59.3368 3.00848 59.3122C3.01427 59.2876 3.02504 59.2644 3.04011 59.2441C3.05518 59.2238 3.07425 59.2068 3.09614 59.1941C3.11754 59.1801 3.14156 59.1706 3.16675 59.1661C3.19194 59.1616 3.21778 59.1623 3.2427 59.168C3.26763 59.1738 3.29113 59.1846 3.31178 59.1997C3.33243 59.2148 3.3498 59.234 3.36284 59.256C3.49831 59.4742 3.65637 59.6777 3.83443 59.8628L4.08568 60.1296C4.1038 60.1475 4.11817 60.1689 4.12799 60.1925C4.1378 60.216 4.14286 60.2413 4.14286 60.2668C4.14286 60.2923 4.1378 60.3176 4.12799 60.3411C4.11817 60.3647 4.1038 60.386 4.08568 60.404C4.06674 60.4206 4.04467 60.4333 4.02078 60.4412C3.99689 60.4492 3.97164 60.4523 3.94653 60.4504V60.4581ZM2.70572 57.6789C2.65446 57.6789 2.60531 57.6585 2.56906 57.6223C2.53282 57.586 2.51245 57.5369 2.51245 57.4856V56.326C2.51245 56.2747 2.53282 56.2255 2.56906 56.1893C2.60531 56.1531 2.65446 56.1327 2.70572 56.1327C2.75698 56.1327 2.80614 56.1531 2.84239 56.1893C2.87863 56.2255 2.89899 56.2747 2.89899 56.326V57.4856C2.897 57.5355 2.87575 57.5827 2.83972 57.6173C2.80369 57.6519 2.75567 57.6712 2.70572 57.6711V57.6789ZM2.70572 54.5363C2.65477 54.5353 2.60619 54.5146 2.57015 54.4786C2.53412 54.4425 2.51344 54.394 2.51245 54.343V53.164C2.51245 53.1128 2.53282 53.0636 2.56906 53.0274C2.60531 52.9911 2.65446 52.9708 2.70572 52.9708C2.75698 52.9708 2.80614 52.9911 2.84239 53.0274C2.87863 53.0636 2.89899 53.1128 2.89899 53.164V54.343C2.897 54.3929 2.87575 54.4401 2.83972 54.4747C2.80369 54.5093 2.75567 54.5286 2.70572 54.5286V54.5363ZM2.70572 51.3898C2.65446 51.3898 2.60531 51.3695 2.56906 51.3332C2.53282 51.297 2.51245 51.2478 2.51245 51.1965V50.0176C2.51344 49.9666 2.53412 49.9181 2.57015 49.882C2.60619 49.846 2.65477 49.8253 2.70572 49.8243C2.75698 49.8243 2.80614 49.8447 2.84239 49.8809C2.87863 49.9172 2.89899 49.9663 2.89899 50.0176V51.1965C2.897 51.2464 2.87575 51.2936 2.83972 51.3282C2.80369 51.3628 2.75567 51.3821 2.70572 51.3821V51.3898ZM2.70572 48.2472C2.65446 48.2472 2.60531 48.2269 2.56906 48.1906C2.53282 48.1544 2.51245 48.1052 2.51245 48.054V46.875C2.51344 46.824 2.53412 46.7755 2.57015 46.7394C2.60619 46.7034 2.65477 46.6827 2.70572 46.6817C2.75698 46.6817 2.80614 46.7021 2.84239 46.7383C2.87863 46.7746 2.89899 46.8237 2.89899 46.875V48.054C2.897 48.1039 2.87575 48.151 2.83972 48.1856C2.80369 48.2202 2.75567 48.2395 2.70572 48.2395V48.2472ZM2.70572 45.1046C2.65446 45.1046 2.60531 45.0843 2.56906 45.048C2.53282 45.0118 2.51245 44.9626 2.51245 44.9114V43.7324C2.51245 43.6811 2.53282 43.632 2.56906 43.5957C2.60531 43.5595 2.65446 43.5391 2.70572 43.5391C2.75698 43.5391 2.80614 43.5595 2.84239 43.5957C2.87863 43.632 2.89899 43.6811 2.89899 43.7324V44.9114C2.897 44.9613 2.87575 45.0085 2.83972 45.0431C2.80369 45.0776 2.75567 45.0969 2.70572 45.0969V45.1046ZM2.70572 41.962C2.65477 41.961 2.60619 41.9404 2.57015 41.9043C2.53412 41.8683 2.51344 41.8197 2.51245 41.7688V40.5898C2.51245 40.5385 2.53282 40.4894 2.56906 40.4531C2.60531 40.4169 2.65446 40.3965 2.70572 40.3965C2.75698 40.3965 2.80614 40.4169 2.84239 40.4531C2.87863 40.4894 2.89899 40.5385 2.89899 40.5898V41.7688C2.897 41.8187 2.87575 41.8659 2.83972 41.9005C2.80369 41.935 2.75567 41.9543 2.70572 41.9543V41.962ZM2.70572 38.8156C2.65446 38.8156 2.60531 38.7952 2.56906 38.759C2.53282 38.7227 2.51245 38.6736 2.51245 38.6223V37.4433C2.51344 37.3924 2.53412 37.3438 2.57015 37.3078C2.60619 37.2717 2.65477 37.2511 2.70572 37.2501C2.75698 37.2501 2.80614 37.2704 2.84239 37.3067C2.87863 37.3429 2.89899 37.3921 2.89899 37.4433V38.6262C2.89604 38.6754 2.87437 38.7216 2.83844 38.7554C2.80251 38.7892 2.75503 38.8079 2.70572 38.8078V38.8156ZM2.70572 35.673C2.65446 35.673 2.60531 35.6526 2.56906 35.6164C2.53282 35.5801 2.51245 35.531 2.51245 35.4797V34.3007C2.51344 34.2498 2.53412 34.2012 2.57015 34.1652C2.60619 34.1291 2.65477 34.1085 2.70572 34.1075C2.75698 34.1075 2.80614 34.1278 2.84239 34.1641C2.87863 34.2003 2.89899 34.2495 2.89899 34.3007V35.4797C2.897 35.5296 2.87575 35.5768 2.83972 35.6114C2.80369 35.646 2.75567 35.6653 2.70572 35.6652V35.673ZM2.70572 32.5304C2.65446 32.5304 2.60531 32.51 2.56906 32.4738C2.53282 32.4375 2.51245 32.3884 2.51245 32.3371V31.1581C2.51245 31.1069 2.53282 31.0577 2.56906 31.0215C2.60531 30.9852 2.65446 30.9649 2.70572 30.9649C2.75698 30.9649 2.80614 30.9852 2.84239 31.0215C2.87863 31.0577 2.89899 31.1069 2.89899 31.1581V32.3371C2.897 32.387 2.87575 32.4342 2.83972 32.4688C2.80369 32.5034 2.75567 32.5227 2.70572 32.5226V32.5304ZM2.70572 29.3878C2.65477 29.3868 2.60619 29.3661 2.57015 29.3301C2.53412 29.294 2.51344 29.2455 2.51245 29.1945V28.0156C2.51245 27.9643 2.53282 27.9151 2.56906 27.8789C2.60531 27.8426 2.65446 27.8223 2.70572 27.8223C2.75698 27.8223 2.80614 27.8426 2.84239 27.8789C2.87863 27.9151 2.89899 27.9643 2.89899 28.0156V29.1945C2.897 29.2444 2.87575 29.2916 2.83972 29.3262C2.80369 29.3608 2.75567 29.3801 2.70572 29.38V29.3878ZM2.70572 26.2413C2.65446 26.2413 2.60531 26.221 2.56906 26.1847C2.53282 26.1485 2.51245 26.0993 2.51245 26.048V24.8691C2.51344 24.8181 2.53412 24.7696 2.57015 24.7335C2.60619 24.6975 2.65477 24.6768 2.70572 24.6758C2.75698 24.6758 2.80614 24.6962 2.84239 24.7324C2.87863 24.7687 2.89899 24.8178 2.89899 24.8691V26.048C2.897 26.098 2.87575 26.1451 2.83972 26.1797C2.80369 26.2143 2.75567 26.2336 2.70572 26.2336V26.2413ZM2.70572 23.0987C2.65446 23.0987 2.60531 23.0784 2.56906 23.0421C2.53282 23.0059 2.51245 22.9567 2.51245 22.9055V21.7265C2.51344 21.6755 2.53412 21.627 2.57015 21.5909C2.60619 21.5549 2.65477 21.5342 2.70572 21.5332C2.75698 21.5332 2.80614 21.5536 2.84239 21.5898C2.87863 21.6261 2.89899 21.6752 2.89899 21.7265V22.9055C2.897 22.9554 2.87575 23.0026 2.83972 23.0371C2.80369 23.0717 2.75567 23.091 2.70572 23.091V23.0987ZM2.70572 19.9561C2.65446 19.9561 2.60531 19.9358 2.56906 19.8995C2.53282 19.8633 2.51245 19.8141 2.51245 19.7629V18.5839C2.51245 18.5326 2.53282 18.4835 2.56906 18.4472C2.60531 18.411 2.65446 18.3906 2.70572 18.3906C2.75698 18.3906 2.80614 18.411 2.84239 18.4472C2.87863 18.4835 2.89899 18.5326 2.89899 18.5839V19.7629C2.897 19.8128 2.87575 19.86 2.83972 19.8945C2.80369 19.9291 2.75567 19.9484 2.70572 19.9484V19.9561Z" fill="#5A6376"/>
<path d="M43.2311 50.9023L40.6064 52.4215C40.8367 52.9659 40.9676 53.5471 40.993 54.1377V101.018C40.993 101.509 40.8654 101.822 40.6567 101.945L43.2388 100.453C43.4514 100.333 43.579 100.017 43.579 99.5256V52.6456C43.573 52.0479 43.455 51.4566 43.2311 50.9023Z" fill="#263238"/>
<path d="M34.0467 70.3577C34.0053 68.982 33.5107 67.6585 32.6397 66.5928C31.8666 65.781 31.2327 66.1444 31.2327 67.4084C31.2735 68.783 31.7682 70.1055 32.6397 71.1694C33.4166 71.985 34.0467 71.6217 34.0467 70.3577Z" fill="#464F60"/>
<path d="M70.0186 53.2949L76.5318 57.056L70.0186 60.817V53.2949Z" fill="#37474F"/>
<path d="M74.9624 57.953L76.4274 57.1065C76.6294 57.038 76.8048 56.9079 76.929 56.7346C77.0532 56.5613 77.12 56.3534 77.12 56.1401C77.12 55.9269 77.0532 55.719 76.929 55.5457C76.8048 55.3724 76.6294 55.2423 76.4274 55.1738L70.0186 51.4707V53.3145L74.4909 55.8966C74.5381 55.9247 74.5773 55.9646 74.6045 56.0123C74.6317 56.0601 74.6459 56.1142 74.6459 56.1691C74.6459 56.2241 74.6317 56.2781 74.6045 56.3259C74.5773 56.3737 74.5381 56.4136 74.4909 56.4416L73.3931 57.0756L74.9624 57.953Z" fill="#5A6376"/>
<path d="M65.7471 61.4714C63.8994 62.5383 62.3997 65.0276 62.3997 67.0299C62.3997 67.9962 62.7514 68.6727 63.3196 68.9935C63.8879 69.3144 64.9083 69.9096 64.9083 69.9096L74.8579 63.4621C75.0492 63.3787 75.2144 63.2453 75.3362 63.0759C75.4579 62.9065 75.5318 62.7074 75.5499 62.4996V55.248C75.5324 55.4566 75.4589 55.6565 75.3371 55.8266C75.2153 55.9967 75.0497 56.1307 74.8579 56.2144L65.7471 61.4714Z" fill="#5A6376"/>
<path d="M67.3204 62.3757C65.4688 63.4426 63.9729 65.9319 63.9729 67.9342C63.9729 69.9365 65.4688 70.6941 67.3204 69.6272L76.4273 64.3664C76.6179 64.2815 76.7826 64.1478 76.9048 63.9788C77.027 63.8098 77.1023 63.6114 77.1231 63.4039V56.1523C77.1053 56.3613 77.0312 56.5615 76.9087 56.7317C76.7862 56.9018 76.6198 57.0356 76.4273 57.1187L67.3204 62.3757Z" fill="#37474F"/>
<path d="M67.8846 63.4625C68.9476 62.8479 69.8173 63.3465 69.8173 64.5719C69.7787 65.2403 69.5836 65.8904 69.2479 66.4698C68.9123 67.0492 68.4453 67.5417 67.8846 67.9077C66.8216 68.5223 65.9519 68.0237 65.9519 66.7945C65.9891 66.1262 66.1835 65.4761 66.5193 64.8971C66.8552 64.3181 67.3229 63.8265 67.8846 63.4625Z" fill="#464F60"/>
<path d="M42.2376 49.3174L3.83452 9.08988C3.4767 8.72456 3.20585 8.28327 3.04211 7.79883L1.7356 11.0922L39.64 50.8095C40.0586 51.2827 40.3862 51.8292 40.6064 52.4214L43.231 50.9023C43.0067 50.3141 42.6692 49.7757 42.2376 49.3174Z" fill="#5A6376"/>
</svg>
